<svg width="24" height="24" viewBox="0 0 24 24" fill="none" xmlns="http://www.w3.org/2000/svg">
<path d="M9.95736 10.4688H9.95722C9.65083 10.4688 9.357 10.5905 9.14037 10.8072C8.92373 11.0238 8.80203 11.3177 8.80204 11.624C8.80205 11.9304 8.92377 12.2243 9.14042 12.4409C9.35707 12.6575 9.6509 12.7793 9.95729 12.7793C10.2637 12.7793 10.5575 12.6575 10.7742 12.4409C10.9908 12.2243 11.1125 11.9304 11.1125 11.624C11.1125 11.3177 10.9908 11.0238 10.7742 10.8072C10.5576 10.5905 10.2637 10.4688 9.95736 10.4688ZM14.0767 10.4688C13.8244 10.4474 13.5715 10.5027 13.3512 10.6274C13.1308 10.7521 12.9533 10.9404 12.8418 11.1678C12.7303 11.3951 12.69 11.6507 12.7262 11.9013C12.7624 12.1519 12.8734 12.3857 13.0448 12.5721C13.2161 12.7586 13.4397 12.8889 13.6863 12.9462C13.9329 13.0034 14.1911 12.9848 14.427 12.8929C14.6629 12.801 14.8656 12.6399 15.0084 12.4309C15.1513 12.2219 15.2277 11.9746 15.2277 11.7214C15.2345 11.5636 15.21 11.4059 15.1558 11.2575C15.1016 11.1091 15.0187 10.9729 14.9118 10.8565C14.8049 10.7402 14.6761 10.6461 14.5328 10.5795C14.3895 10.513 14.2345 10.4754 14.0767 10.4688ZM19.5615 1H4.43867C4.13409 1.00072 3.83264 1.06143 3.55152 1.17866C3.27041 1.29589 3.01514 1.46734 2.80029 1.68323C2.58545 1.89912 2.41523 2.15522 2.29936 2.4369C2.1835 2.71858 2.12425 3.02032 2.12501 3.3249V18.5832C2.12426 18.8878 2.18352 19.1896 2.29939 19.4712C2.41526 19.7529 2.58548 20.009 2.80033 20.2249C3.01517 20.4407 3.27044 20.6122 3.55154 20.7294C3.83265 20.8467 4.1341 20.9074 4.43867 20.9081H17.2367L16.6385 18.8202L18.083 20.1632L19.4487 21.4272L21.8751 23.5715V3.3249C21.8759 3.02032 21.8166 2.71858 21.7008 2.4369C21.5849 2.15522 21.4147 1.89912 21.1998 1.68323C20.985 1.46734 20.7297 1.29589 20.4486 1.17866C20.1675 1.06143 19.866 1.00072 19.5615 1ZM15.2052 15.7392V15.7393C15.2052 15.7393 14.7988 15.2539 14.4603 14.8251C15.2783 14.6324 16.0019 14.1567 16.5031 13.482C16.097 13.7523 15.6616 13.9757 15.2052 14.1479C14.6802 14.372 14.1311 14.5348 13.5688 14.6332C12.6022 14.8111 11.611 14.8073 10.6458 14.6219C10.0792 14.511 9.52381 14.3486 8.9867 14.1367C8.70362 14.0278 8.42835 13.8996 8.16284 13.7529C8.12895 13.7303 8.0952 13.719 8.06132 13.6965C8.04434 13.6881 8.02904 13.6766 8.01618 13.6627C7.81312 13.5498 7.70008 13.4708 7.70008 13.4708C8.18312 14.1313 8.88171 14.6023 9.67514 14.8025C9.33668 15.2314 8.91906 15.7392 8.91906 15.7392C8.24867 15.7573 7.58412 15.6102 6.9839 15.3111C6.38367 15.012 5.86618 14.5699 5.47696 14.0238C5.51361 11.7358 6.06927 9.48606 7.10203 7.44414C8.01093 6.73031 9.11902 6.31626 10.2733 6.25914L10.3861 6.39462C9.30012 6.66333 8.28673 7.16811 7.41803 7.87302C7.41803 7.87302 7.66636 7.73761 8.08386 7.54573C8.89513 7.1754 9.75978 6.93546 10.6459 6.83479C10.7091 6.82164 10.7733 6.81406 10.8378 6.81215C11.5941 6.71363 12.3594 6.70608 13.1175 6.78965C14.3096 6.92577 15.4636 7.2938 16.5145 7.87302C15.6898 7.20174 14.732 6.71321 13.7045 6.43973L13.8624 6.25925C15.0167 6.31632 16.1248 6.73038 17.0337 7.44425C18.0665 9.48612 18.6222 11.7359 18.6589 14.0238C18.2665 14.5694 17.7467 15.0109 17.1448 15.3099C16.5429 15.6088 15.8771 15.7562 15.2052 15.7392Z" />
</svg>
