<svg width="24" height="24" viewBox="0 0 24 24" fill="none" xmlns="http://www.w3.org/2000/svg">
<path d="M11.9996 1.96527C6.31896 1.96527 1.71387 6.57036 1.71387 12.251C1.71387 16.8003 4.67069 20.6531 8.76489 22.0099C9.26335 22.0876 9.45389 21.7875 9.45389 21.5212C9.45389 21.277 9.44102 20.467 9.44102 19.6055C6.85672 20.0813 6.18813 18.9756 5.98246 18.397C5.75414 17.8343 5.39227 17.3357 4.92815 16.9441C4.56817 16.7513 4.05389 16.2756 4.91529 16.2627C5.58282 16.3351 6.17313 16.7286 6.49676 17.317C6.49776 17.3188 6.49876 17.3206 6.49977 17.3224C7.09335 18.3816 8.43317 18.7591 9.49245 18.1655C9.53695 17.6426 9.77 17.1537 10.1482 16.7898C7.85962 16.5327 5.46818 15.6455 5.46818 11.7113C5.45368 10.689 5.83092 9.69995 6.52243 8.94698C6.20796 8.05848 6.24476 7.08345 6.62532 6.22124C6.62532 6.22124 7.4867 5.95123 9.45389 7.27555C11.1369 6.81262 12.9137 6.81262 14.5967 7.27555C16.5639 5.93835 17.4253 6.22124 17.4253 6.22124C17.8058 7.08345 17.8426 8.05847 17.5282 8.94698C18.2217 9.69869 18.5993 10.6885 18.5825 11.7113C18.5825 15.6584 16.1782 16.5327 13.8896 16.7898C14.3863 17.2932 14.6397 17.9877 14.5839 18.6927C14.5839 20.0684 14.571 21.1741 14.571 21.5212C14.5703 21.576 14.5785 21.6306 14.5952 21.6828C14.6808 21.949 14.9657 22.0954 15.2319 22.0107C19.3274 20.6546 22.2853 16.8012 22.2853 12.251C22.2853 6.57036 17.6802 1.96527 11.9996 1.96527Z" />
</svg>
