<svg width="22" height="22" viewBox="0 0 22 22" fill="none" xmlns="http://www.w3.org/2000/svg">
<path d="M11.0001 0.965332C5.31944 0.965332 0.714355 5.57042 0.714355 11.251C0.714355 15.8004 3.67118 19.6531 7.76538 21.0099C8.26384 21.0877 8.45438 20.7875 8.45438 20.5213C8.45438 20.277 8.44151 19.4671 8.44151 18.6056C5.85721 19.0813 5.18862 17.9756 4.98295 17.397C4.75462 16.8344 4.39276 16.3358 3.92864 15.9442C3.56866 15.7514 3.05438 15.2756 3.91577 15.2627C4.58331 15.3352 5.17361 15.7287 5.49724 16.317C5.49825 16.3189 5.49925 16.3206 5.50026 16.3224C6.09383 17.3817 7.43366 17.7591 8.49294 17.1656C8.53744 16.6427 8.77049 16.1538 9.14866 15.7899C6.86011 15.5328 4.46867 14.6456 4.46867 10.7113C4.45417 9.68903 4.83141 8.70001 5.52292 7.94704C5.20845 7.05854 5.24524 6.08351 5.6258 5.2213C5.6258 5.2213 6.48719 4.95129 8.45438 6.27561C10.1374 5.81268 11.9142 5.81268 13.5972 6.27561C15.5644 4.93842 16.4258 5.2213 16.4258 5.2213C16.8063 6.08351 16.8431 7.05853 16.5286 7.94704C17.2222 8.69875 17.5998 9.68859 17.5829 10.7113C17.5829 14.6584 15.1786 15.5328 12.8901 15.7899C13.3868 16.2933 13.6402 16.9877 13.5844 17.6927C13.5844 19.0685 13.5715 20.1742 13.5715 20.5213C13.5708 20.5761 13.579 20.6307 13.5957 20.6828C13.6813 20.9491 13.9662 21.0955 14.2324 21.0107C18.3279 19.6546 21.2858 15.8013 21.2858 11.251C21.2858 5.57042 16.6807 0.965332 11.0001 0.965332Z" />
</svg>
