<svg width="24" height="24" viewBox="0 0 24 24" fill="none" xmlns="http://www.w3.org/2000/svg">
<path d="M12.0001 1.96533C6.31944 1.96533 1.71436 6.57042 1.71436 12.251C1.71436 16.8004 4.67118 20.6531 8.76538 22.0099C9.26384 22.0877 9.45438 21.7875 9.45438 21.5213C9.45438 21.277 9.44151 20.4671 9.44151 19.6056C6.85721 20.0813 6.18862 18.9756 5.98295 18.397C5.75463 17.8344 5.39276 17.3358 4.92864 16.9442C4.56866 16.7514 4.05438 16.2756 4.91577 16.2627C5.58331 16.3352 6.17361 16.7287 6.49724 17.317C6.49825 17.3189 6.49925 17.3206 6.50026 17.3224C7.09383 18.3817 8.43366 18.7591 9.49294 18.1656C9.53744 17.6427 9.77049 17.1538 10.1487 16.7899C7.86011 16.5328 5.46867 15.6456 5.46867 11.7113C5.45417 10.689 5.83141 9.70001 6.52292 8.94704C6.20845 8.05854 6.24524 7.08351 6.6258 6.2213C6.6258 6.2213 7.48719 5.95129 9.45438 7.27561C11.1374 6.81268 12.9142 6.81268 14.5972 7.27561C16.5644 5.93842 17.4258 6.2213 17.4258 6.2213C17.8063 7.08351 17.8431 8.05853 17.5286 8.94704C18.2222 9.69875 18.5998 10.6886 18.5829 11.7113C18.5829 15.6584 16.1786 16.5328 13.8901 16.7899C14.3868 17.2933 14.6402 17.9877 14.5844 18.6927C14.5844 20.0685 14.5715 21.1742 14.5715 21.5213C14.5708 21.5761 14.579 21.6307 14.5957 21.6828C14.6813 21.9491 14.9662 22.0955 15.2324 22.0107C19.3279 20.6546 22.2858 16.8013 22.2858 12.251C22.2858 6.57042 17.6807 1.96533 12.0001 1.96533Z" fill="white"/>
</svg>
