<svg width="200" height="200" viewBox="0 0 200 200" fill="none" xmlns="http://www.w3.org/2000/svg">
<path d="M142.017 48.1811H56.1401V142.955L147.045 144.889V57.4651L142.017 48.1811Z" fill="#272639"/>
<path d="M31.3828 162.466V114.716C40.0973 127.572 50.7484 135.683 54.9847 138.132C55.4386 139.509 56.5279 142.54 57.2541 143.642C60.522 146.947 86.7564 158.487 99.4651 163.844L31.3828 162.466Z" fill="url(#paint0_linear_177_459)"/>
<path d="M54.0769 162.925L31.3828 140.428V162.925H54.0769Z" fill="url(#paint1_linear_177_459)"/>
<path d="M53.623 144.101V162.925L31.3828 140.428V114.716L34.56 118.848C37.1017 124.358 48.3277 137.826 53.623 144.101Z" fill="url(#paint2_linear_177_459)"/>
<path d="M78.5866 163.385L53.623 145.937V162.925L78.5866 163.385Z" fill="url(#paint3_linear_177_459)"/>
<path d="M35.0137 119.767C35.0577 119.856 35.1053 119.949 35.1564 120.046C36.8648 122.898 49.5847 134.146 54.9845 138.132L57.2539 143.642C55.2871 142.417 50.6272 139.326 47.7224 136.755C44.8879 134.246 37.2133 123.956 35.1564 120.046C35.0937 119.941 35.0458 119.848 35.0137 119.767Z" fill="url(#paint4_linear_177_459)"/>
<path d="M85.3948 157.875C68.3288 153.1 57.1028 146.703 53.623 144.101V145.937L78.5866 163.385H86.3026L85.3948 157.875Z" fill="url(#paint5_linear_177_459)"/>
<path d="M144.338 142.568H84.8361L72.5981 152.368V161.722L99.606 186.667L124.504 161.722L127.88 164.84V158.604L144.338 142.568Z" fill="url(#paint6_linear_177_459)"/>
<path d="M90.3218 148.359L100.872 142.568H84.8358L73.4419 151.477C89.6466 161.455 113.11 171.076 120.284 165.731C111.506 163.593 96.3704 153.11 90.3218 148.359Z" fill="url(#paint7_linear_177_459)"/>
<path d="M108.468 153.151C104.754 151.013 103.263 151.369 102.982 151.815C104.332 152.884 115.079 159.684 120.284 162.951C117.893 160.575 112.181 155.289 108.468 153.151Z" fill="#362940"/>
<path d="M124.925 164.84C124.925 165.731 123.237 166.176 122.815 166.176C123.097 165.879 123.491 165.196 122.815 164.84C121.971 164.395 118.173 165.285 117.329 165.285C116.654 165.285 115.923 165.582 115.641 165.731C113.278 166.087 99.4648 174.788 92.8535 179.094C100.027 168.404 115.641 164.84 116.907 164.84C118.173 164.84 123.237 162.167 124.081 162.167C124.925 162.167 124.925 163.949 124.925 164.84Z" fill="#272639"/>
<path d="M52.5205 48.9548C52.5205 50.5021 38.6733 65.8464 31.7497 73.3251L29.3893 72.5515C26.3681 71.9325 21.2069 74.8725 19.0039 76.4198C20.8922 72.3967 26.7143 71.391 29.3893 71.391L28.4452 29.6132L74.7076 28.8395L51.5764 45.0864L52.5205 48.9548Z" fill="url(#paint8_linear_177_459)"/>
<path d="M31.75 48.9548V73.3252L42.6075 61.3334L49.6885 53.2099L51.5767 45.0865L74.7079 28.8396L55.8253 29.2264L31.75 48.9548Z" fill="url(#paint9_linear_177_459)"/>
<path d="M51.1047 42.7655C46.0064 46.1253 35.4699 56.5541 34.1104 71.391C34.6768 66.956 38.8688 55.022 51.1047 42.7655Z" fill="#272639"/>
<path d="M51.1047 51.6626C54.4092 47.7943 52.5209 45.8601 51.1047 44.6996C43.5517 49.0322 35.5265 64.6859 34.1104 70.6173L51.1047 51.6626Z" fill="url(#paint10_linear_177_459)"/>
<path d="M140.47 101.564C132.379 103.718 125.355 114.579 122.854 119.74C122.071 122.971 124.05 122.657 125.137 122.096C129.835 110.248 137.316 103.471 140.47 101.564Z" fill="url(#paint11_linear_177_459)"/>
<path d="M84.7656 126.321C82.8508 122.804 73.197 119.749 68.6094 118.662C65.7372 118.322 66.0164 119.182 66.5151 119.655C77.0465 121.697 83.0702 124.95 84.7656 126.321Z" fill="url(#paint12_linear_177_459)"/>
<path d="M169.868 73.712C168.94 69.9984 163.679 61.3334 160.971 57.4651V54.7572C167.16 60.9465 169.353 69.9726 169.868 73.712Z" fill="#FE7506"/>
<path d="M160.585 71.7778C151.92 55.6856 147.046 47.7943 122.675 29.2264H161.745L160.585 71.7778Z" fill="url(#paint13_linear_177_459)"/>
<path d="M160.971 51.2757C160.352 50.3473 146.787 36.3183 139.309 29.2264H161.745L160.971 51.2757Z" fill="url(#paint14_linear_177_459)"/>
<circle cx="155.169" cy="52.4363" r="1.54733" fill="url(#paint15_radial_177_459)"/>
<circle cx="148.206" cy="47.7942" r="1.54733" fill="url(#paint16_radial_177_459)"/>
<circle cx="150.914" cy="53.5967" r="0.386831" fill="url(#paint17_radial_177_459)"/>
<circle cx="154.782" cy="59.786" r="0.386831" fill="url(#paint18_radial_177_459)"/>
<circle cx="157.877" cy="58.2387" r="0.386831" fill="url(#paint19_radial_177_459)"/>
<circle cx="158.65" cy="55.1441" r="0.386831" fill="url(#paint20_radial_177_459)"/>
<circle cx="90.5677" cy="161.523" r="1.16049" fill="url(#paint21_radial_177_459)"/>
<circle cx="83.218" cy="163.457" r="0.773663" fill="url(#paint22_radial_177_459)"/>
<circle cx="85.9259" cy="166.165" r="0.386831" fill="url(#paint23_radial_177_459)"/>
<circle cx="89.7941" cy="172.354" r="0.386831" fill="url(#paint24_radial_177_459)"/>
<circle cx="92.8893" cy="170.807" r="0.386831" fill="url(#paint25_radial_177_459)"/>
<circle cx="93.6627" cy="167.712" r="0.386831" fill="url(#paint26_radial_177_459)"/>
<path d="M141.63 48.1811L98.2655 12.5926L56.1401 48.1811H141.63Z" fill="url(#paint27_linear_177_459)"/>
<path d="M66.8779 47.5762C77.6158 38.5501 113.133 25.7449 135.435 46.6338C121.944 48.439 84.3889 48.5046 66.8779 47.5762Z" fill="url(#paint28_linear_177_459)"/>
<path d="M93.3096 31.5474C93.64 30.619 90.4186 23.6818 89.1796 20.3292L56.1401 48.1811H86.2887C88.4913 43.0233 92.9792 32.4757 93.3096 31.5474Z" fill="url(#paint29_linear_177_459)"/>
<path d="M94.1354 34.2793C92.8138 34.2793 85.3249 40.2107 81.7456 43.1765C89.1795 37.374 92.8964 36.6003 96.2004 36.2135C98.8435 35.904 110.242 36.0845 115.611 36.2135C108.177 33.8925 95.7874 34.2793 94.1354 34.2793Z" fill="#B03646"/>
<path d="M116.437 35.8629C111.151 36.1724 108.178 43.4706 107.352 47.081C112.307 38.7254 119.604 36.8945 122.632 37.0234C122.77 36.5076 121.724 35.5534 116.437 35.8629Z" fill="#272639"/>
<path d="M128.001 43.5391C126.68 43.5391 113.684 46.6338 107.352 48.1811H138.326C135.435 46.6338 129.323 43.5391 128.001 43.5391Z" fill="#762148"/>
<path d="M66.9712 125.547V62.107L83.387 80.2881V107.753L66.9712 125.547Z" fill="url(#paint30_linear_177_459)"/>
<path d="M119.576 61.3334L86.3717 97.6955L118.83 131.737H140.469L105.399 94.214L135.619 61.3334H119.576Z" fill="url(#paint31_linear_177_459)"/>
<path d="M66.9712 125.547V62.107L83.387 80.2881V107.753L66.9712 125.547Z" stroke="url(#paint32_linear_177_459)" stroke-width="1.54733"/>
<path d="M119.576 61.3334L86.3717 97.6955L118.83 131.737H140.469L105.399 94.214L135.619 61.3334H119.576Z" stroke="url(#paint33_linear_177_459)" stroke-width="1.54733"/>
<path d="M184.181 96.9219L147.045 139.086V96.9219H184.181Z" fill="#EE9B3D"/>
<path d="M166.387 117.424C164.53 119.281 152.59 126.192 147.045 129.416V123.226C156.02 114.871 168.45 110.461 173.35 109.3C171.803 111.235 168.244 115.567 166.387 117.424Z" fill="url(#paint34_linear_177_459)"/>
<path d="M147.045 96.9219V123.226C154.473 116.109 167.805 110.977 173.35 109.3L184.181 96.9219H147.045Z" fill="url(#paint35_linear_177_459)"/>
<path d="M147.045 61.3334V96.9219H184.181C176.96 88.5405 160.12 69.6889 152.074 61.3334C144.028 52.9778 135.312 49.0837 131.959 48.1811C138.148 52.2042 144.338 58.6256 147.045 61.3334Z" fill="url(#paint36_linear_177_459)"/>
<path d="M133.893 62.107H119.919L117.097 65.2017H131.026L133.893 62.107Z" fill="#272639"/>
<path d="M157.148 77.9593C156.487 69.6134 151.671 64.7236 147.046 61.3333L147.046 64.428C155.227 70.6173 155.84 74.5138 157.148 77.9593Z" fill="url(#paint37_linear_177_459)"/>
<path d="M49.1768 66.3622L56.1397 56.3046V76.4198L49.1768 66.3622Z" fill="url(#paint38_linear_177_459)"/>
<path d="M44.6131 77.9671C43.9941 74.2536 47.1919 69.4569 48.8682 67.5227C49.1775 68.4511 53.9474 75.1304 56.1396 78.354V89.5721L44.6131 77.9671Z" fill="url(#paint39_linear_177_459)"/>
<path d="M19.0039 90.9012C20.3283 88.2519 33.3518 76.2747 39.698 70.6173V80.1383C40.3602 82.4565 50.459 90.4872 54.5978 92.971V128.157C46.9824 121.203 39.9739 97.9385 37.6286 87.1756C34.9798 104.396 47.5618 122.776 54.1839 129.813V132.711C34.0903 115.103 29.8352 106.979 19.0039 90.9012Z" fill="url(#paint40_linear_177_459)"/>
<path d="M38.0428 99.5943C33.7384 99.9255 40.802 118.116 39.6983 119.358L23.6462 98.856L16.2964 91.3152H32.6623C33.6556 87.6724 38.0428 79.3104 39.6983 78.0685V80.1383C41.7677 83.45 50.0454 88.0035 54.5981 90.9012V99.5943C50.5113 98.6008 43.3286 99.1804 40.94 99.5943C40.2778 98.932 38.4567 91.0392 37.6289 87.1756C36.8011 91.3152 37.6289 97.1106 38.0428 99.5943Z" fill="url(#paint41_linear_177_459)"/>
<path d="M52.1149 126.98C51.4527 126.649 51.2871 127.67 51.2871 128.222C51.9493 130.871 55.4259 134.569 57.0815 136.087C64.3658 143.704 74.1886 146.16 78.1895 146.436C67.0146 141.055 58.737 134.845 57.0815 132.776C55.4259 130.706 52.9426 127.394 52.1149 126.98Z" fill="url(#paint42_linear_177_459)"/>
<path d="M32.6623 91.3152H16.2964C16.6275 89.9905 32.9382 76.8266 39.6983 70.6173V78.0685C38.0428 79.3932 34.3179 87.4516 32.6623 91.3152Z" fill="url(#paint43_linear_177_459)"/>
<path d="M152.074 139.473C151.455 140.402 134.151 156.365 126.156 164.617H166V120.905C161.616 126.708 152.693 138.545 152.074 139.473Z" fill="url(#paint44_linear_177_459)"/>
<path d="M160.971 147.984L162.518 125.934C159.791 129.842 152.541 142.715 151.687 143.728C150.833 144.742 139.609 158.879 132.732 165.004L148.028 164.687L160.971 147.984Z" fill="url(#paint45_linear_177_459)"/>
<path d="M146.658 117.424V115.877C149.753 116.805 162.131 106.722 167.934 101.564C165.149 108.063 154.911 113.556 150.14 115.49C151.816 115.103 156.406 114.639 161.358 115.877C167.547 117.424 171.415 128.255 167.547 124.774C163.679 121.292 159.037 117.811 154.395 116.263C150.681 115.026 147.69 116.521 146.658 117.424Z" fill="#272639"/>
<defs>
<linearGradient id="paint0_linear_177_459" x1="65.424" y1="114.716" x2="65.424" y2="163.844" gradientUnits="userSpaceOnUse">
<stop stop-color="#2DA69E"/>
<stop offset="1" stop-color="#2EA1A0"/>
</linearGradient>
<linearGradient id="paint1_linear_177_459" x1="42.7299" y1="140.428" x2="42.7299" y2="162.925" gradientUnits="userSpaceOnUse">
<stop stop-color="#5E3A56"/>
<stop offset="1" stop-color="#5C445A"/>
</linearGradient>
<linearGradient id="paint2_linear_177_459" x1="42.5029" y1="114.716" x2="42.5029" y2="162.925" gradientUnits="userSpaceOnUse">
<stop stop-color="#404F5A"/>
<stop offset="1" stop-color="#375861"/>
</linearGradient>
<linearGradient id="paint3_linear_177_459" x1="66.1048" y1="145.937" x2="66.1048" y2="163.385" gradientUnits="userSpaceOnUse">
<stop stop-color="#328C8A"/>
<stop offset="1" stop-color="#2E8C8B"/>
</linearGradient>
<linearGradient id="paint4_linear_177_459" x1="46.1338" y1="119.767" x2="46.1338" y2="143.642" gradientUnits="userSpaceOnUse">
<stop stop-color="#336169"/>
<stop offset="1" stop-color="#3A6774"/>
</linearGradient>
<linearGradient id="paint5_linear_177_459" x1="54.0769" y1="146.396" x2="100.172" y2="172.113" gradientUnits="userSpaceOnUse">
<stop stop-color="#356873"/>
<stop offset="1" stop-color="#34B0AD"/>
</linearGradient>
<linearGradient id="paint6_linear_177_459" x1="144.338" y1="142.568" x2="85.8386" y2="174.999" gradientUnits="userSpaceOnUse">
<stop stop-color="#E1555A"/>
<stop offset="1" stop-color="#721C43"/>
</linearGradient>
<linearGradient id="paint7_linear_177_459" x1="96.0188" y1="142.568" x2="121.881" y2="186.365" gradientUnits="userSpaceOnUse">
<stop stop-color="#42072A"/>
<stop offset="1" stop-color="#520C34"/>
</linearGradient>
<linearGradient id="paint8_linear_177_459" x1="46.8558" y1="28.8395" x2="46.8558" y2="76.4198" gradientUnits="userSpaceOnUse">
<stop stop-color="#EE7543"/>
<stop offset="1" stop-color="#CF4F5E"/>
</linearGradient>
<linearGradient id="paint9_linear_177_459" x1="73.7638" y1="29.6132" x2="40.9068" y2="78.6204" gradientUnits="userSpaceOnUse">
<stop stop-color="#CC4C4B"/>
<stop offset="1" stop-color="#83304E"/>
</linearGradient>
<linearGradient id="paint10_linear_177_459" x1="47.8002" y1="47.4075" x2="37.9978" y2="72.157" gradientUnits="userSpaceOnUse">
<stop stop-color="#F5854A"/>
<stop offset="1" stop-color="#D66D40"/>
</linearGradient>
<linearGradient id="paint11_linear_177_459" x1="131.572" y1="101.564" x2="131.572" y2="122.453" gradientUnits="userSpaceOnUse">
<stop stop-color="#53B9BF"/>
<stop offset="1" stop-color="#227880"/>
</linearGradient>
<linearGradient id="paint12_linear_177_459" x1="84.7656" y1="122.453" x2="66.1977" y2="122.453" gradientUnits="userSpaceOnUse">
<stop stop-color="#42B1B8"/>
<stop offset="1" stop-color="#22626A"/>
</linearGradient>
<linearGradient id="paint13_linear_177_459" x1="143.37" y1="28.4527" x2="143.37" y2="71.7778" gradientUnits="userSpaceOnUse">
<stop stop-color="#47EDDD"/>
<stop offset="1" stop-color="#389398"/>
</linearGradient>
<linearGradient id="paint14_linear_177_459" x1="161.358" y1="29.6132" x2="150.527" y2="42.7655" gradientUnits="userSpaceOnUse">
<stop stop-color="#49EDDD"/>
<stop offset="1" stop-color="#30B8AA"/>
</linearGradient>
<radialGradient id="paint15_radial_177_459" cx="0" cy="0" r="1" gradientUnits="userSpaceOnUse" gradientTransform="translate(155.169 52.4363) rotate(90) scale(1.54733)">
<stop stop-color="#65F9E5"/>
<stop offset="1" stop-color="#FFF8FF" stop-opacity="0"/>
</radialGradient>
<radialGradient id="paint16_radial_177_459" cx="0" cy="0" r="1" gradientUnits="userSpaceOnUse" gradientTransform="translate(148.206 47.7942) rotate(90) scale(1.54733)">
<stop stop-color="#65F9E5"/>
<stop offset="1" stop-color="#FFF8FF" stop-opacity="0"/>
</radialGradient>
<radialGradient id="paint17_radial_177_459" cx="0" cy="0" r="1" gradientUnits="userSpaceOnUse" gradientTransform="translate(150.914 53.5967) rotate(90) scale(0.386831)">
<stop stop-color="#65F9E5"/>
<stop offset="1" stop-color="#FFF8FF" stop-opacity="0"/>
</radialGradient>
<radialGradient id="paint18_radial_177_459" cx="0" cy="0" r="1" gradientUnits="userSpaceOnUse" gradientTransform="translate(154.782 59.786) rotate(90) scale(0.386831)">
<stop stop-color="#65F9E5"/>
<stop offset="1" stop-color="#FFF8FF" stop-opacity="0"/>
</radialGradient>
<radialGradient id="paint19_radial_177_459" cx="0" cy="0" r="1" gradientUnits="userSpaceOnUse" gradientTransform="translate(157.877 58.2387) rotate(90) scale(0.386831)">
<stop stop-color="#65F9E5"/>
<stop offset="1" stop-color="#FFF8FF" stop-opacity="0"/>
</radialGradient>
<radialGradient id="paint20_radial_177_459" cx="0" cy="0" r="1" gradientUnits="userSpaceOnUse" gradientTransform="translate(158.65 55.1441) rotate(90) scale(0.386831)">
<stop stop-color="#65F9E5"/>
<stop offset="1" stop-color="#FFF8FF" stop-opacity="0"/>
</radialGradient>
<radialGradient id="paint21_radial_177_459" cx="0" cy="0" r="1" gradientUnits="userSpaceOnUse" gradientTransform="translate(90.5677 161.523) rotate(90) scale(1.16049)">
<stop stop-color="#BF4353"/>
<stop offset="1" stop-color="#FFF8FF" stop-opacity="0"/>
</radialGradient>
<radialGradient id="paint22_radial_177_459" cx="0" cy="0" r="1" gradientUnits="userSpaceOnUse" gradientTransform="translate(83.218 163.457) rotate(90) scale(0.773663)">
<stop stop-color="#BF4353"/>
<stop offset="1" stop-color="#FFF8FF" stop-opacity="0"/>
</radialGradient>
<radialGradient id="paint23_radial_177_459" cx="0" cy="0" r="1" gradientUnits="userSpaceOnUse" gradientTransform="translate(85.9259 166.165) rotate(90) scale(0.386831)">
<stop stop-color="#BF4353"/>
<stop offset="1" stop-color="#FFF8FF" stop-opacity="0"/>
</radialGradient>
<radialGradient id="paint24_radial_177_459" cx="0" cy="0" r="1" gradientUnits="userSpaceOnUse" gradientTransform="translate(89.7941 172.354) rotate(90) scale(0.386831)">
<stop stop-color="#BF4353"/>
<stop offset="1" stop-color="#FFF8FF" stop-opacity="0"/>
</radialGradient>
<radialGradient id="paint25_radial_177_459" cx="0" cy="0" r="1" gradientUnits="userSpaceOnUse" gradientTransform="translate(92.8893 170.807) rotate(90) scale(0.386831)">
<stop stop-color="#BF4353"/>
<stop offset="1" stop-color="#FFF8FF" stop-opacity="0"/>
</radialGradient>
<radialGradient id="paint26_radial_177_459" cx="0" cy="0" r="1" gradientUnits="userSpaceOnUse" gradientTransform="translate(93.6627 167.712) rotate(90) scale(0.386831)">
<stop stop-color="#BF4353"/>
<stop offset="1" stop-color="#FFF8FF" stop-opacity="0"/>
</radialGradient>
<linearGradient id="paint27_linear_177_459" x1="98.885" y1="12.5926" x2="98.885" y2="48.1811" gradientUnits="userSpaceOnUse">
<stop stop-color="#FF9F51"/>
<stop offset="1" stop-color="#C5691F"/>
</linearGradient>
<linearGradient id="paint28_linear_177_459" x1="101.156" y1="35.3418" x2="101.156" y2="48.1655" gradientUnits="userSpaceOnUse">
<stop stop-color="#CA563A"/>
<stop offset="1" stop-color="#BD4022"/>
</linearGradient>
<linearGradient id="paint29_linear_177_459" x1="74.7367" y1="20.3292" x2="74.7367" y2="48.1811" gradientUnits="userSpaceOnUse">
<stop stop-color="#FE7506"/>
<stop offset="1" stop-color="#DA6405"/>
</linearGradient>
<linearGradient id="paint30_linear_177_459" x1="103.72" y1="61.3334" x2="103.72" y2="131.737" gradientUnits="userSpaceOnUse">
<stop stop-color="#F6CE97"/>
<stop offset="1" stop-color="#E85245"/>
</linearGradient>
<linearGradient id="paint31_linear_177_459" x1="103.72" y1="61.3334" x2="103.72" y2="131.737" gradientUnits="userSpaceOnUse">
<stop stop-color="#F6CE97"/>
<stop offset="1" stop-color="#E85245"/>
</linearGradient>
<linearGradient id="paint32_linear_177_459" x1="103.72" y1="61.3334" x2="103.72" y2="131.737" gradientUnits="userSpaceOnUse">
<stop stop-color="#F5ECD3"/>
<stop offset="1" stop-color="#FDB651"/>
</linearGradient>
<linearGradient id="paint33_linear_177_459" x1="103.72" y1="61.3334" x2="103.72" y2="131.737" gradientUnits="userSpaceOnUse">
<stop stop-color="#F5ECD3"/>
<stop offset="1" stop-color="#FDB651"/>
</linearGradient>
<linearGradient id="paint34_linear_177_459" x1="171.416" y1="109.3" x2="148.593" y2="127.868" gradientUnits="userSpaceOnUse">
<stop stop-color="#E77B32"/>
<stop offset="1" stop-color="#DF662C"/>
</linearGradient>
<linearGradient id="paint35_linear_177_459" x1="184.568" y1="96.9219" x2="147.432" y2="123.226" gradientUnits="userSpaceOnUse">
<stop stop-color="#F39A40"/>
<stop offset="1" stop-color="#E87739"/>
</linearGradient>
<linearGradient id="paint36_linear_177_459" x1="158.07" y1="48.1811" x2="158.07" y2="96.9219" gradientUnits="userSpaceOnUse">
<stop stop-color="#EDA535"/>
<stop offset="1" stop-color="#F2AB3C"/>
</linearGradient>
<linearGradient id="paint37_linear_177_459" x1="158.752" y1="69.2079" x2="138.205" y2="65.4428" gradientUnits="userSpaceOnUse">
<stop stop-color="#04C8C9"/>
<stop offset="1" stop-color="#099CAD"/>
</linearGradient>
<linearGradient id="paint38_linear_177_459" x1="52.6582" y1="57.4651" x2="52.6582" y2="76.8066" gradientUnits="userSpaceOnUse">
<stop stop-color="#D3564A"/>
<stop offset="1" stop-color="#9B3C4D"/>
</linearGradient>
<linearGradient id="paint39_linear_177_459" x1="50.183" y1="67.5227" x2="50.183" y2="89.5721" gradientUnits="userSpaceOnUse">
<stop stop-color="#4E2343"/>
<stop offset="1" stop-color="#593957"/>
</linearGradient>
<linearGradient id="paint40_linear_177_459" x1="36.5939" y1="70.6173" x2="36.5939" y2="132.711" gradientUnits="userSpaceOnUse">
<stop stop-color="#656A7A"/>
<stop offset="1" stop-color="#6C6B7C"/>
</linearGradient>
<linearGradient id="paint41_linear_177_459" x1="36.1094" y1="78.0685" x2="36.1094" y2="103.734" gradientUnits="userSpaceOnUse">
<stop stop-color="#643658"/>
<stop offset="1" stop-color="#654B69"/>
</linearGradient>
<linearGradient id="paint42_linear_177_459" x1="51.2871" y1="128.157" x2="77.7787" y2="146.367" gradientUnits="userSpaceOnUse">
<stop stop-color="#155E6D"/>
<stop offset="1" stop-color="#40B5BF"/>
</linearGradient>
<linearGradient id="paint43_linear_177_459" x1="39.6983" y1="70.6173" x2="19.0004" y2="91.3114" gradientUnits="userSpaceOnUse">
<stop stop-color="#C34E6F"/>
<stop offset="1" stop-color="#BB4F75"/>
</linearGradient>
<linearGradient id="paint44_linear_177_459" x1="146.658" y1="120.905" x2="146.658" y2="165.391" gradientUnits="userSpaceOnUse">
<stop stop-color="#F28A48"/>
<stop offset="1" stop-color="#AA3754"/>
</linearGradient>
<linearGradient id="paint45_linear_177_459" x1="157.876" y1="128.642" x2="135.827" y2="170.033" gradientUnits="userSpaceOnUse">
<stop stop-color="#4E143C"/>
<stop offset="1" stop-color="#932C53" stop-opacity="0.2"/>
</linearGradient>
</defs>
</svg>
