<svg width="24" height="24" viewBox="0 0 24 24" fill="none" xmlns="http://www.w3.org/2000/svg">
<path d="M16.1486 3.03491C14.5985 3.03633 13.1123 3.67734 12.0169 4.817C11.4759 4.245 10.8313 3.78996 10.1203 3.47811C9.4092 3.16627 8.64575 3.0038 7.87396 3.00007C7.10216 2.99634 6.33729 3.15142 5.62347 3.45638C4.90964 3.76134 4.26098 4.21014 3.71492 4.77689C3.16885 5.34363 2.73617 6.01711 2.44184 6.75848C2.14751 7.49985 1.99736 8.29443 2.00004 9.0964C2.00271 9.89837 2.15818 10.6919 2.45745 11.4311C2.75673 12.1703 3.1939 12.8406 3.74374 13.4034L12.0169 22L20.2901 13.4034C21.1073 12.5532 21.6635 11.4702 21.8884 10.2915C22.1133 9.11277 21.9967 7.89122 21.5534 6.78135C21.11 5.67147 20.3599 4.72314 19.3979 4.05627C18.4358 3.3894 17.3051 3.03397 16.1486 3.03491ZM18.9064 11.9757L12.0169 19.1345L5.12747 11.9757C4.76532 11.5994 4.47805 11.1527 4.28206 10.661C4.08606 10.1694 3.98519 9.6424 3.98519 9.11022C3.98519 8.57805 4.08606 8.05108 4.28206 7.55941C4.47805 7.06775 4.76532 6.62101 5.12747 6.2447C5.48962 5.8684 5.91956 5.56989 6.39273 5.36624C6.8659 5.16258 7.37304 5.05776 7.8852 5.05776C8.39736 5.05776 8.9045 5.16258 9.37767 5.36624C9.85084 5.56989 10.2808 5.8684 10.6429 6.2447L12.0169 7.68252L13.3909 6.25483C14.134 5.51822 15.1216 5.10727 16.1486 5.10727C17.1756 5.10727 18.1632 5.51822 18.9064 6.25483C19.2688 6.63098 19.5563 7.07767 19.7524 7.56936C19.9486 8.06105 20.0495 8.58809 20.0495 9.12035C20.0495 9.65261 19.9486 10.1796 19.7524 10.6713C19.5563 11.163 19.2688 11.6097 18.9064 11.9859V11.9757Z" fill="white"/>
</svg>
