<svg width="20" height="20" viewBox="0 0 20 20" fill="none" xmlns="http://www.w3.org/2000/svg">
<path d="M14.1665 8.25008L17.0832 11.1667C18.7498 12.8334 18.7498 15.5001 17.0832 17.1667C16.3332 18.0001 15.2498 18.4167 14.1665 18.4167C13.1665 18.4167 12.0832 18.0001 11.2498 17.1667L8.24984 14.1667L9.4165 13.0001L12.4165 16.0001C13.4165 17.0001 14.9998 17.0001 15.9998 16.0001C16.9998 15.0001 16.9998 13.4167 15.9998 12.4167L12.9998 9.41675L14.1665 8.25008Z" fill="#565656"/>
<path d="M8.83317 2.91675L11.7498 5.83341L10.6665 7.08341L7.6665 4.08341C6.6665 3.08341 4.99984 3.08341 4.08317 4.08341C3.08317 5.08341 3.08317 6.66675 4.08317 7.66675L6.99984 10.5834L5.83317 11.7501L2.9165 8.83341C1.24984 7.16675 1.24984 4.58341 2.9165 2.91675C3.6665 2.08341 4.74984 1.66675 5.83317 1.66675C6.99984 1.66675 7.99984 2.08341 8.83317 2.91675Z" fill="#565656"/>
<path d="M7.61333 6.47678L6.43482 7.6553L12.3274 13.5479L13.5059 12.3693L7.61333 6.47678Z" fill="#565656"/>
</svg>
