<svg width="43" height="45" viewBox="0 0 43 45" fill="none" xmlns="http://www.w3.org/2000/svg">
<mask id="mask0" mask-type="alpha" maskUnits="userSpaceOnUse" x="0" y="0" width="43" height="45">
<path d="M0.78833 9.97853C0.78833 6.78848 2.99861 4.02417 6.1105 3.32232L15.3958 1.22813C19.3494 0.336432 23.452 0.336432 27.4056 1.22813L36.6909 3.32232C39.8028 4.02417 42.0131 6.78848 42.0131 9.97853V23.297C42.0131 29.8214 38.52 35.8463 32.8579 39.0879L24.7909 43.7065C22.6907 44.9089 20.1107 44.9089 18.0105 43.7065L9.94345 39.0879C4.28143 35.8463 0.78833 29.8214 0.78833 23.297V9.97853Z" fill="white"/>
</mask>
<g mask="url(#mask0)">
<path fill-rule="evenodd" clip-rule="evenodd" d="M6.91147 12.2658C6.66287 12.1965 6.36805 12.0905 6.10961 11.9901C5.82346 11.8789 5.19792 11.7389 5.36437 11.9969C5.41768 12.0795 5.54221 12.1834 5.67448 12.2937L5.67449 12.2937C5.80238 12.4003 5.93749 12.513 6.02244 12.6183C5.1929 13.0687 4.59386 13.7841 4.2063 14.639C4.13773 14.7903 4.07577 14.9459 4.02024 15.105C3.50105 17.4116 3.76174 18.5366 4.42966 18.6479C5.00348 18.7436 5.68455 17.4384 6.08394 16.4572C6.37006 15.5089 6.97846 14.6578 7.74535 14.6578C8.34903 14.6578 9.08059 15.1025 9.74499 15.6528C10.1081 15.6085 10.9545 15.2796 10.1159 14.2313C9.33314 13.2529 8.42597 12.4947 7.81623 12.1183C7.87136 12.1142 7.92714 12.1111 7.98356 12.1088C8.13562 12.1027 8.28352 12.0995 8.42735 12.0991C8.27947 12.0995 8.12778 12.1028 7.9722 12.109C7.59191 12.1242 7.23857 12.178 6.91147 12.2658ZM4.70991 20.4975C4.54803 20.6836 4.39499 20.8595 4.26594 21.0332C4.59612 22.2799 5.01121 23.6606 5.47705 24.9583C6.14413 26.8167 6.93177 28.5539 7.74732 29.4624C8.43832 29.1385 9.15635 28.9526 9.84651 28.8405C10.1403 28.7928 10.4289 28.7585 10.7084 28.7325L12.2776 28.1179C12.1125 28.1051 11.9446 28.0943 11.774 28.0857C6.45177 27.8179 5.9059 23.4072 5.9059 22.6036C5.9059 21.8 6.58824 20.176 9.727 19.7909C11.0684 19.6264 12.4433 20.7888 13.6061 22.2861C12.7713 20.6612 12.1869 19.0794 12.7293 18.496C12.7423 18.7096 12.9475 18.8766 13.359 19.2115L13.3591 19.2115L13.3591 19.2115C13.5028 19.3286 13.6718 19.4661 13.8665 19.6332C14.8331 20.4628 15.3981 23.1208 15.8988 25.4759L15.8988 25.476C15.9209 25.5798 15.9428 25.683 15.9647 25.7854C16.1406 25.6162 16.3182 25.4379 16.4947 25.251C16.3904 24.5409 16.259 23.8025 16.0971 23.0878C15.8907 22.1765 15.6328 21.2953 15.3146 20.5578C15.1266 20.1223 14.9122 19.7241 14.666 19.3976C14.5755 19.2775 14.4804 19.1669 14.3805 19.0675C14.2976 18.9851 14.2115 18.9106 14.1222 18.8451C13.81 18.6162 13.5882 18.4375 13.4319 18.2936C13.3716 18.238 13.3207 18.1873 13.2779 18.1405C13.259 18.1199 13.2421 18.1004 13.227 18.0821C13.2134 18.0657 13.2011 18.0499 13.1898 18.0346C13.1533 17.9852 13.1313 17.9457 13.1179 17.9139C13.1103 17.8956 13.1054 17.8797 13.1022 17.8657L13.101 17.86C13.0939 17.8239 13.095 17.7835 13.1104 17.7218C13.1245 17.6655 13.1501 17.5987 13.1808 17.5187C13.3025 17.2015 13.5041 16.676 13.3829 15.7672C13.2345 14.654 12.8195 13.6839 11.9398 13.0192C11.1615 12.4311 10.0565 12.1107 8.54318 12.0993C8.69072 12.1005 8.83389 12.1046 8.97278 12.1117C9.70575 13.2231 10.9688 15.0843 11.3953 15.0941C11.6795 15.1006 11.8449 14.7482 12.0449 14.3221L12.0449 14.3221C12.145 14.1088 12.2537 13.8772 12.3904 13.6627C12.4685 13.8135 12.6747 14.0892 12.6747 14.0892C12.6747 14.0892 11.8763 15.0843 12.7292 15.2264C13.5822 15.3686 11.8764 18.0695 11.8764 18.0695C11.7661 17.947 11.5325 17.6787 11.2551 17.3601L11.2551 17.3601L11.2549 17.3599L11.2371 17.3395C9.87499 19.2275 7.13627 19.6519 6.26108 18.7568C6.1677 18.6613 6.09391 18.5407 6.03833 18.4015C5.98676 18.5792 5.92496 18.7163 5.8512 18.7901C5.57322 19.5053 5.11406 20.0331 4.70991 20.4975L4.70991 20.4975ZM8.83644 16.7901C8.83644 17.0257 9.02737 17.2166 9.2629 17.2166C9.49843 17.2166 9.68937 17.0257 9.68936 16.7901C9.68936 16.5546 9.49843 16.3637 9.2629 16.3637C9.02737 16.3637 8.83644 16.5546 8.83644 16.7901ZM8.26782 16.7901C8.26782 17.3397 8.71333 17.7852 9.2629 17.7852C9.81247 17.7852 10.258 17.3397 10.258 16.7901C10.258 16.2406 9.81247 15.795 9.2629 15.795C8.71333 15.795 8.26782 16.2406 8.26782 16.7901Z" fill="url(#paint0_linear)"/>
<path fill-rule="evenodd" clip-rule="evenodd" d="M14.0392 27.6172L13.7521 27.0825L10.6086 28.3136C10.3403 28.3396 10.0621 28.3735 9.77818 28.4196C8.25139 28.6676 6.53771 29.2729 5.25486 30.9153C4.7447 31.5684 4.31048 32.3762 3.9828 33.3731C3.7852 33.9743 3.8646 34.6672 4.1079 35.378C4.35307 36.0942 4.77965 36.8733 5.33947 37.6772C6.45987 39.2862 8.151 41.0476 10.1343 42.6799C10.7753 43.2074 11.4483 43.7227 12.1444 44.2161L12.1529 44.2452C12.1827 44.2583 12.2124 44.2716 12.2421 44.2851C13.619 45.254 15.0838 46.1359 16.5675 46.8566C18.4547 48.0453 20.3994 49.1053 22.4579 49.1121C23.9578 49.1171 24.0747 49.5881 24.1666 49.9584C24.2443 50.2716 24.3042 50.5128 25.1685 50.3386L25.7935 48.6559C30.9113 48.0644 34.7144 45.4618 36.269 44.3979L36.2735 44.3949L36.2754 44.3936L36.277 44.3925C36.4638 44.2647 36.6117 44.1635 36.7262 44.0897L36.7435 44.0787L36.7595 44.066C38.7411 42.5025 40.2242 39.049 39.7595 35.5841C39.2872 32.0629 36.8173 28.5726 30.9892 26.9345L30.8571 26.8949L30.7241 26.9434C28.8119 27.6411 24.3856 29.5607 21.5542 31.817C20.2289 30.4755 18.289 29.4099 16.6729 28.6728C15.7986 28.2741 15.0046 27.9651 14.4291 27.7558C14.2848 27.7033 14.1541 27.6571 14.0392 27.6172ZM10.6763 42.0213C11.0716 42.3466 11.4791 42.6669 11.8966 42.9799C11.6215 40.837 11.9696 38.4792 12.0364 39.1985C12.1253 40.1564 14.7493 45.8713 13.5064 41.1555C12.2634 36.4398 13.8978 33.2283 13.6525 34.0563C13.4073 34.8842 13.4141 38.4264 14.624 41.0518C15.8339 43.6771 17.0257 44.3717 17.5902 43.5141C18.0682 42.788 16.5373 39.9015 15.3019 37.5722L15.3014 37.5713L15.3013 37.5712C15.0777 37.1495 14.8637 36.7461 14.6732 36.3771C14.6732 36.3771 17.0897 39.8566 18.4444 42.3075C19.7992 44.7583 22.4829 45.2178 21.7677 41.6769C21.0546 38.1464 16.8152 32.6165 14.7666 30.2712C14.7722 30.2683 14.7789 30.2691 14.7835 30.2733C16.3784 31.725 18.7837 34.4069 20.6353 37.4026C21.0198 38.0246 21.385 38.6407 21.7342 39.2299C23.0442 41.4402 24.1298 43.2717 25.1685 43.6158C26.3679 44.013 29.3026 37.503 31.226 33.2363C31.8492 31.854 32.3662 30.7071 32.6836 30.107L26.9818 45.4569C30.0276 39.4532 32.7815 32.4888 34.0249 29.0513C33.3413 28.6804 32.5749 28.3449 31.7182 28.0531C28.8092 30.5344 23.7333 35.1493 22.6143 37.2897C21.3018 39.8001 22.7155 34.7021 30.4055 27.9766C28.2207 28.8343 24.23 30.6696 21.7911 32.7254L21.4738 32.9929L21.1978 32.683C20.0014 31.3395 18.032 30.2301 16.319 29.4489C15.4698 29.0615 14.6974 28.761 14.1376 28.5574C13.8578 28.4556 13.6316 28.3783 13.4759 28.3265C13.3981 28.3007 13.338 28.2812 13.2976 28.2683C13.2774 28.2619 13.2622 28.2571 13.2522 28.254L13.2412 28.2505L13.2381 28.2496L13.1668 28.2277L13.093 28.2566C11.823 30.8517 9.81115 35.9743 10.2401 39.3002C10.2685 39.5206 10.2901 39.6971 10.3056 39.8332L10.258 39.811C10.0078 38.2807 9.26197 32.5536 9.47176 29.344C8.20034 29.6128 6.91319 30.1778 5.92704 31.4403C5.48363 32.008 5.09327 32.7261 4.79308 33.6394C4.67674 33.9934 4.70197 34.4798 4.91486 35.1017C5.12586 35.7182 5.50699 36.4252 6.03942 37.1898C7.10353 38.718 8.73504 40.4236 10.6763 42.0213Z" fill="url(#paint1_linear)"/>
<path fill-rule="evenodd" clip-rule="evenodd" d="M25.3416 10.9617C22.0444 11.5255 18.9421 14.8839 17.8032 16.4927C19.4934 12.1488 21.8371 7.90525 25.5094 7.56436C26.0229 7.51669 26.6369 7.35603 27.2981 7.12228C27.2519 7.07763 27.2104 7.03325 27.1751 6.98962C27.1377 6.94347 27.0357 6.85991 26.8486 6.75805C26.6717 6.66177 26.4525 6.56713 26.2192 6.48533C25.7327 6.31477 25.2713 6.22981 25.0473 6.2506C24.9377 6.26078 24.8182 6.29281 24.6743 6.34151C24.6328 6.35557 24.5836 6.37316 24.5307 6.39206C24.4272 6.42908 24.3097 6.4711 24.2084 6.50132C23.8703 6.6022 23.4108 6.67247 22.9833 6.32057C22.9752 6.3178 22.9487 6.31178 22.8904 6.31794C22.7937 6.32813 22.6617 6.36759 22.5027 6.43935C22.2013 6.5754 21.8853 6.78939 21.6776 6.95395C21.4126 7.25355 20.7569 7.77614 19.8822 7.85735C19.7607 7.86862 19.6458 7.86579 19.5372 7.85213C19.5042 7.88885 19.4677 7.92741 19.4274 7.96789C18.7203 8.67769 17.7207 13.87 17.3094 16.3775C17.4275 11.0854 18.2449 8.58397 18.8889 7.62873C18.7109 7.52825 18.5597 7.41171 18.4323 7.31312C18.0628 7.02736 17.9008 6.91401 17.7028 6.93239C17.6926 6.93333 17.6855 6.93462 17.6808 6.93572C17.6793 6.93829 17.6775 6.94176 17.6755 6.94633C17.6474 7.00773 17.6306 7.11407 17.6166 7.3072C17.6153 7.32495 17.614 7.34413 17.6126 7.3643C17.6024 7.51715 17.588 7.73264 17.5309 7.91079C17.4956 8.02112 17.4343 8.15271 17.3195 8.26245C17.1976 8.37895 17.0445 8.44287 16.8782 8.45831C16.6532 8.4792 16.4292 8.44413 16.2371 8.40196C16.117 8.37558 15.9825 8.33957 15.8623 8.30737L15.8623 8.30736C15.8 8.29069 15.7415 8.27503 15.6908 8.26227C15.5206 8.21937 15.3935 8.19613 15.2946 8.19559C15.2023 8.19508 15.1727 8.21462 15.1616 8.22361C15.0802 8.28954 15.0093 8.42126 14.9695 8.6128C14.9168 8.86561 14.7487 9.04513 14.5891 9.1539C14.4294 9.26267 14.2331 9.33314 14.0377 9.34366C14.0286 9.37592 14.0165 9.44754 14.0291 9.58277C14.0685 10.007 14.2742 10.2048 14.4525 10.3016C14.6342 10.4002 14.7717 10.5607 14.8525 10.7327C14.933 10.9043 14.9761 11.1299 14.9027 11.3573C14.8457 11.5342 14.827 11.6939 14.8483 11.8102C14.8654 11.9034 14.9051 11.9705 15.0139 12.0228C15.3838 12.2005 15.5468 12.5318 15.6173 12.8308C15.6855 13.1203 15.682 13.4386 15.6753 13.6881C15.6742 13.7293 15.6731 13.7683 15.672 13.8051L15.672 13.8067C15.6672 13.969 15.6636 14.0906 15.6693 14.1839C15.7151 14.1938 15.7623 14.2098 15.8093 14.2341C15.9328 14.2983 16.0122 14.3987 16.0573 14.4996C16.1342 14.6715 16.1179 14.8576 16.1032 14.9669C16.077 15.1603 16.0057 15.4065 15.9436 15.6205C15.9293 15.6699 15.9155 15.7176 15.9028 15.7626C15.8448 15.9686 15.8073 16.1282 15.794 16.2418C16.2489 16.2316 16.6191 16.401 16.8916 16.6155C17.1809 16.8432 17.3718 17.1293 17.465 17.3414L17.4929 17.4047L17.4993 17.4736C17.503 17.5141 17.5144 17.5658 17.5347 17.6141C17.5551 17.6626 17.5783 17.693 17.597 17.7094C17.6111 17.7218 17.6279 17.7318 17.6613 17.7347C17.7 17.7381 17.7819 17.7332 17.9202 17.6723C18.0463 17.6169 18.2601 17.5392 18.4767 17.6134C18.772 17.7145 18.8351 17.9882 18.8429 18.1269C18.8507 18.2648 18.8204 18.4083 18.7923 18.5184C18.7619 18.6368 18.7205 18.7649 18.6816 18.8833L18.6708 18.9161L18.6708 18.9161C18.6058 19.114 18.5508 19.2811 18.5223 19.4148C19.1938 19.4269 19.8681 19.0018 20.5015 18.4207C21.0973 17.8741 21.7397 17.2333 22.2542 16.6142C22.7846 15.9762 23.1237 15.4252 23.1993 15.05C23.2864 14.6182 23.4596 14.2131 23.8518 14.0694C24.042 13.9997 24.2274 14.0158 24.3781 14.0557C24.5263 14.095 24.6657 14.1636 24.7857 14.232C24.9072 14.3013 25.0292 14.3824 25.1394 14.4562L25.1682 14.4755C25.2716 14.5448 25.3658 14.6079 25.4586 14.664C25.6814 14.7985 25.7947 14.8259 25.8429 14.8214C25.9186 14.8144 25.9993 14.7798 26.1208 14.6744C26.2082 14.5986 26.2835 14.5185 26.3772 14.4187C26.4346 14.3576 26.4989 14.2891 26.5771 14.2098C26.9638 13.8176 27.5012 13.3792 28.4386 13.2921C29.0584 13.2346 29.5114 13.3757 29.874 13.4886C29.9762 13.5205 30.0713 13.5501 30.1608 13.5724C30.5614 13.672 31.0819 13.7211 32.1603 13.3305C32.9267 13.0528 33.7112 13.7232 33.63 14.4989C33.6074 14.7138 33.6003 14.9062 33.6123 15.0567C33.6223 15.1826 33.6428 15.2378 33.6482 15.2523C33.6501 15.2575 33.6501 15.2575 33.6471 15.2539C33.7911 15.4316 34.0568 15.6567 34.3341 15.8357C34.3719 15.8602 34.409 15.8831 34.4451 15.9045C34.4365 15.877 34.4276 15.8487 34.4186 15.8192C34.3846 15.7085 34.3401 15.559 34.328 15.4283C34.3037 15.1667 34.4703 15.0051 34.574 14.9353C34.6715 14.8696 34.784 14.8316 34.8625 14.808C34.939 14.7849 35.0254 14.7635 35.1032 14.7443L35.1292 14.7379C35.2187 14.7158 35.3027 14.6944 35.3827 14.6697C35.5556 14.6162 35.6455 14.5648 35.6835 14.5252C35.684 14.5247 35.6846 14.5242 35.6854 14.5236C35.6931 14.5175 35.7134 14.5012 35.6883 14.4062C35.6021 14.0789 35.4775 13.8451 35.3651 13.6892C35.3087 13.611 35.256 13.5531 35.2134 13.5132C35.1922 13.4933 35.1744 13.4786 35.1609 13.4685C35.1484 13.4591 35.1416 13.4551 35.1408 13.4547C34.9963 13.3766 34.9094 13.2224 34.9175 13.0584C34.9255 12.8967 34.9152 12.6517 34.8656 12.4507C34.8408 12.3499 34.8118 12.2841 34.7882 12.2486C34.7847 12.2434 34.7793 12.2399 34.7732 12.2383C34.2948 12.1112 34.0281 11.723 33.8537 11.4313C33.8073 11.3538 33.7628 11.2745 33.7216 11.201L33.7192 11.1968C33.6762 11.1202 33.6365 11.0494 33.5957 10.9814C33.5877 10.968 33.5797 10.9549 33.5718 10.9421C31.5545 10.6998 28.1253 10.4858 25.3416 10.9617ZM34.5275 10.8937C34.5471 10.928 34.5663 10.9611 34.5857 10.9936C34.7568 11.2796 34.8744 11.3866 35.0025 11.4165C35.2383 11.4715 35.3978 11.6251 35.4984 11.7764C35.5969 11.9245 35.6562 12.0942 35.6937 12.2466C35.7455 12.4563 35.7669 12.679 35.7717 12.8679C36.0377 13.1071 36.3426 13.542 36.5131 14.1888C36.6099 14.5559 36.527 14.8789 36.298 15.1168C36.102 15.3204 35.8338 15.4229 35.6348 15.4845C35.529 15.5173 35.4236 15.5437 35.3342 15.5658L35.3111 15.5716L35.3086 15.5722C35.2843 15.5782 35.2615 15.5838 35.2402 15.5892C35.2465 15.6094 35.2532 15.6309 35.2603 15.6533C35.2889 15.7445 35.3222 15.8506 35.3478 15.9476C35.3793 16.0674 35.4189 16.2407 35.4037 16.4038C35.3957 16.4898 35.3689 16.6165 35.2768 16.7308C35.1742 16.858 35.0326 16.9184 34.8958 16.9311C34.7037 16.9489 34.5065 16.881 34.365 16.8207C34.2055 16.7528 34.0351 16.658 33.8714 16.5522C33.7849 16.4964 33.6968 16.4353 33.61 16.3704C33.5655 16.5972 33.5449 16.8463 33.5693 17.1091L33.7768 19.3444C33.8124 19.7276 33.6581 20.0691 33.3821 20.2902C33.1122 20.5064 32.7522 20.5887 32.3887 20.5329C32.1064 20.4895 31.9296 20.5241 31.8495 20.5651C31.8319 20.5741 31.8219 20.5819 31.8167 20.5867C31.8118 20.5912 31.8102 20.5939 31.8096 20.595C31.809 20.596 31.8073 20.5992 31.8058 20.6069C31.8043 20.615 31.8027 20.6303 31.8049 20.6547L31.8065 20.6715C31.8164 20.7771 31.8283 20.9054 31.8216 21.0218C31.8139 21.1549 31.7801 21.324 31.655 21.4747C31.5343 21.62 31.3726 21.6952 31.2217 21.7403C31.1923 21.7491 31.1617 21.7571 31.1299 21.7646C31.1157 21.9143 31.0608 22.0573 30.9559 22.1838C30.872 22.2848 30.7705 22.3565 30.6654 22.407C30.6688 22.7323 30.6297 23.0708 30.5027 23.3808C30.3181 23.8315 29.9609 24.188 29.3889 24.3587C29.092 24.4473 28.7544 24.4135 28.4697 24.3647C28.2664 24.3299 28.0435 24.2777 27.8368 24.2293L27.8366 24.2292C27.7494 24.2088 27.6651 24.1891 27.5863 24.1716C27.2983 24.1076 27.0702 24.07 26.9003 24.0765C26.819 24.0797 26.7731 24.0925 26.7502 24.1027C26.7334 24.1102 26.7303 24.1151 26.7268 24.1207C26.488 24.5093 26.3986 24.754 26.3815 24.9074C26.3686 25.0233 26.3946 25.0827 26.4647 25.152C26.5625 25.2485 26.7422 25.3525 27.055 25.4837C27.2411 25.5618 27.4442 25.638 27.6756 25.7248C27.8334 25.784 28.0045 25.8482 28.1922 25.9213C29.5214 26.4385 30.6224 26.8158 31.0014 26.9382L32.1819 27.3194L31.0165 27.7447C29.0547 28.4605 24.48 30.459 21.7911 32.7254L21.4738 32.9929L21.1978 32.683C20.0014 31.3396 18.032 30.2301 16.319 29.4489C15.4698 29.0616 14.6974 28.761 14.1376 28.5574C13.8578 28.4557 13.6316 28.3783 13.476 28.3265C13.3981 28.3007 13.338 28.2812 13.2976 28.2683C13.2775 28.2619 13.2622 28.2571 13.2522 28.254L13.2412 28.2505L13.2387 28.2498L13.2381 28.2496L12.3294 27.9704L13.142 27.4774L13.1424 27.4772L13.1446 27.4759L13.1549 27.4695L13.1665 27.4623C13.1751 27.4569 13.1858 27.4502 13.1985 27.4421C13.2374 27.4175 13.2956 27.3801 13.3702 27.3305C13.5195 27.2313 13.7346 27.0835 13.9942 26.8912C14.5139 26.5062 15.2083 25.9457 15.9077 25.2436C17.1997 23.9467 18.4569 22.2192 18.7354 20.2614C18.5578 20.2747 18.3759 20.2691 18.1902 20.2406C18.088 20.2249 17.9826 20.1858 17.8896 20.1116C17.7965 20.0374 17.737 19.9447 17.7013 19.8535C17.6358 19.6864 17.6453 19.5116 17.6615 19.389C17.6918 19.1599 17.7816 18.8885 17.8519 18.676C17.8586 18.6557 17.8651 18.6361 17.8713 18.617C17.8766 18.6009 17.8818 18.5852 17.8868 18.5697C17.5575 18.6266 17.2639 18.5516 17.0347 18.3508C16.7969 18.1422 16.6956 17.8529 16.6608 17.6368C16.6077 17.5378 16.5073 17.3985 16.3641 17.2857C16.2037 17.1594 16.0018 17.0747 15.7478 17.0983C15.5544 17.1162 15.3308 17.0825 15.1564 16.9157C14.9918 16.7582 14.9483 16.5539 14.9384 16.407C14.9196 16.1257 15.0102 15.7856 15.0818 15.5313C15.1002 15.4659 15.118 15.4042 15.1348 15.346C15.1763 15.2019 15.2117 15.0794 15.2349 14.9762C15.1567 14.9433 15.0837 14.893 15.0205 14.8229C14.8983 14.6872 14.8558 14.5218 14.8369 14.4077C14.805 14.2162 14.813 13.97 14.8197 13.7645L14.8197 13.7645C14.8208 13.7301 14.8219 13.6968 14.8227 13.6652C14.8296 13.4102 14.8268 13.195 14.7871 13.0265C14.7497 12.8675 14.696 12.8163 14.6446 12.7916C14.265 12.6093 14.0704 12.2971 14.0094 11.964C13.9537 11.6603 14.0096 11.3534 14.0862 11.1105C14.0852 11.1069 14.0834 11.1016 14.0804 11.0952C14.075 11.0836 14.0675 11.0724 14.0593 11.0634C14.0514 11.0548 14.046 11.0515 14.0456 11.0512C13.6396 10.8308 13.2478 10.3937 13.1798 9.66161C13.151 9.35087 13.1879 9.05875 13.3475 8.83187C13.5196 8.58721 13.7736 8.50197 13.991 8.49201C14.0029 8.49147 14.0221 8.48847 14.0456 8.48038C14.0688 8.47239 14.0908 8.4613 14.1089 8.44898C14.1249 8.43809 14.1333 8.42969 14.1374 8.42503C14.1966 8.14959 14.3283 7.80084 14.6248 7.56073C14.8384 7.38782 15.0845 7.3415 15.2993 7.34268C15.5076 7.34382 15.7191 7.38981 15.8992 7.43518C15.9781 7.45505 16.0486 7.47404 16.1155 7.49206C16.2197 7.52014 16.3152 7.54586 16.42 7.56887C16.5447 7.59625 16.646 7.61044 16.7291 7.61157C16.7445 7.5416 16.7515 7.44467 16.7625 7.29243L16.7659 7.24535C16.7784 7.07367 16.7981 6.81427 16.8997 6.59188C16.9548 6.47129 17.0395 6.34735 17.1705 6.24994C17.3029 6.15146 17.4579 6.09853 17.624 6.08311C18.1806 6.03144 18.6068 6.36603 18.89 6.58838L18.8902 6.58851C18.9124 6.60593 18.9337 6.62266 18.9541 6.63846C19.2858 6.89502 19.5087 7.03542 19.8033 7.00807C20.4254 6.95032 20.9078 6.54707 21.0519 6.37345L21.0789 6.34096L21.1117 6.31439C21.3546 6.11778 21.749 5.84374 22.1519 5.66194C22.3522 5.57151 22.5777 5.49325 22.801 5.46971C23.0234 5.44626 23.2975 5.47285 23.524 5.66086C23.6188 5.73959 23.7162 5.75812 23.9646 5.684C24.0483 5.65901 24.1216 5.63262 24.206 5.60221C24.2635 5.58149 24.3261 5.55889 24.4009 5.53359C24.5644 5.47827 24.7587 5.42079 24.9684 5.40133C25.3831 5.36283 25.9891 5.50085 26.5014 5.68044C26.7674 5.77371 27.0304 5.88593 27.2563 6.00891C27.472 6.12632 27.6935 6.27441 27.838 6.45293C27.8865 6.51283 28.0116 6.62404 28.2172 6.7648C30.443 5.82798 32.9061 4.3225 33.8347 3.57075C34.2769 4.28202 34.4776 8.63607 34.5275 10.8937ZM15.792 16.3703C15.792 16.3703 15.7919 16.3693 15.7914 16.3676C15.7917 16.3695 15.792 16.3703 15.792 16.3703ZM23.7841 15.7443C23.7923 15.7306 23.7958 15.7243 23.7962 15.724C23.7923 15.7306 23.7882 15.7374 23.7841 15.7443ZM23.7963 15.724C23.7963 15.724 23.7962 15.724 23.7962 15.724C23.8462 15.6406 23.8825 15.5867 23.9102 15.5456C23.9792 15.4433 23.9948 15.42 24.0355 15.2185C24.0447 15.1725 24.0437 15.1395 24.0429 15.1139C24.0416 15.0725 24.0409 15.0503 24.0853 15.0234L24.0955 15.0255C24.3584 15.0809 24.5655 15.2312 24.5885 15.4784C24.5959 15.5579 24.6231 15.6265 24.6607 15.6831C24.7908 15.8792 25.0454 15.932 25.0326 15.7946L25.0227 15.6579L25.003 15.3852L25.0177 15.3941C25.1507 15.4744 25.508 15.624 25.508 15.624C25.508 15.624 26.1244 15.9194 26.5802 15.8254C27.2651 15.6843 27.4144 15.4062 27.5472 15.1587C27.6903 14.8922 27.8143 14.6612 28.5669 14.6748C29.1347 14.6851 29.7711 14.6397 30.3566 14.598C31.2683 14.533 32.0563 14.4768 32.2688 14.6532C32.3988 14.7611 32.4484 14.9659 32.4009 15.1775C32.3563 15.3762 32.1596 15.4898 31.9562 15.5011C31.459 15.5288 30.7408 15.4478 30.2081 15.0055C29.5101 14.4262 29.6276 15.1131 29.7735 15.529C29.9343 16.1045 30.3636 17.3745 30.7942 17.8498C31.0935 18.1803 31.176 17.7838 31.27 17.3316C31.3169 17.1064 31.3666 16.8673 31.4474 16.6973C31.7461 16.8195 32.1122 16.8647 32.4615 16.7288C32.5282 16.7029 32.5923 16.6701 32.6537 16.6313C32.6846 16.8033 32.6998 16.9688 32.7157 17.1409C32.7171 17.1565 32.7186 17.1722 32.72 17.188L32.9275 19.4232C32.9533 19.7012 32.5546 19.8073 32.3467 19.7754C32.2958 19.7676 32.2477 19.7595 32.2022 19.7519C32.1298 19.7397 32.0634 19.7286 32.0003 19.7209C31.8882 19.6736 31.7788 19.6094 31.6762 19.5242C30.9783 18.9448 30.8334 19.1193 30.6886 19.2938C30.6148 19.3827 30.6858 19.7578 31.1603 20.0413C31.125 20.0831 31.093 20.1289 31.0651 20.1788C30.9696 20.3497 30.9378 20.5409 30.9557 20.7335C30.958 20.7586 30.96 20.7812 30.9618 20.8016C30.8399 20.8064 30.7103 20.7981 30.5821 20.7682C30.187 20.676 29.9621 20.45 29.899 20.3485C29.8359 20.247 29.6488 20.0818 29.4052 20.2333C29.1007 20.4226 29.3048 20.8868 29.6241 20.8571C29.7496 20.8455 29.9058 20.9237 30.0537 21.0551C30.167 21.2238 30.2135 21.4054 30.2632 21.5992L30.2753 21.6466C30.1755 21.6814 30.0614 21.6893 29.9494 21.6943C29.8315 21.6684 29.7317 21.6286 29.6932 21.5708C29.5676 21.382 29.0643 21.4444 29.3156 21.8221C29.4115 21.9663 29.5305 21.9959 29.6322 22.0211C29.6962 22.037 29.7532 22.0511 29.7934 22.0911L29.7969 22.1294C29.8316 22.5025 29.8109 22.8196 29.7134 23.0575C29.6262 23.2704 29.469 23.4447 29.145 23.5414C29.0502 23.5697 28.8815 23.5699 28.6138 23.5241C28.4468 23.4954 28.2773 23.4563 28.0964 23.4139C27.5008 23.0881 26.8923 22.4695 26.3156 21.6474C25.1278 19.9541 24.5587 18.9118 24.4226 18.6024C24.4333 18.6929 24.4445 18.7879 24.4562 18.8868C24.5025 19.2795 24.5306 19.7742 24.5615 20.3207C24.6685 22.21 24.8105 24.7169 25.8653 25.7588C26.0889 25.9797 26.4032 26.1353 26.7251 26.2703C26.9223 26.353 27.1543 26.4402 27.4013 26.533C27.5575 26.5917 27.7197 26.6526 27.8829 26.7161C28.5387 26.9713 29.1404 27.1932 29.6306 27.3683C27.437 28.2638 23.9328 29.9215 21.5542 31.817C20.2289 30.4755 18.289 29.4099 16.673 28.6729C15.7986 28.2741 15.0047 27.9652 14.4291 27.7558L14.3759 27.7366L14.3136 27.7141C14.3735 27.671 14.4364 27.6251 14.5018 27.5766C15.0462 27.1734 15.7751 26.5853 16.512 25.8456C17.3861 24.9681 17.9619 23.9115 18.5323 22.8648C19.1798 21.6765 19.8203 20.501 20.8825 19.6152C21.4833 19.1141 22.1418 18.7027 22.8145 18.2824C23.4229 17.9023 24.0429 17.515 24.6423 17.0475C24.68 17.0181 24.7167 16.9895 24.7532 16.9613C25.0071 16.7653 24.9836 15.9737 24.1853 16.0478C24.1606 16.0501 24.1352 16.053 24.1096 16.0559C23.9531 16.0738 23.7914 16.0924 23.7606 15.9725C23.7381 15.8847 23.7718 15.7856 23.7882 15.7441C23.7932 15.7315 23.7965 15.7241 23.7963 15.724Z" fill="url(#paint2_linear)"/>
</g>
<path fill-rule="evenodd" clip-rule="evenodd" d="M40.0229 23.2971V9.97856C40.0229 7.71894 38.4573 5.76089 36.253 5.26374L26.9678 3.16956C23.3024 2.34288 19.499 2.34288 15.8336 3.16956L6.54836 5.26374C4.34411 5.76089 2.77849 7.71894 2.77849 9.97856V23.2971C2.77849 29.1078 5.88953 34.4738 10.9323 37.3608L18.9993 41.9794C20.4869 42.8311 22.3144 42.8311 23.8021 41.9794L31.8691 37.3608C36.9119 34.4738 40.0229 29.1078 40.0229 23.2971ZM6.1105 3.32235C2.99861 4.0242 0.78833 6.78851 0.78833 9.97856V23.2971C0.78833 29.8214 4.28143 35.8463 9.94345 39.088L18.0105 43.7065C20.1107 44.9089 22.6907 44.9089 24.7909 43.7065L32.8579 39.088C38.52 35.8463 42.0131 29.8214 42.0131 23.2971V9.97856C42.0131 6.78851 39.8028 4.0242 36.6909 3.32235L27.4056 1.22816C23.452 0.336462 19.3494 0.336463 15.3958 1.22816L6.1105 3.32235Z" fill="url(#paint3_linear)"/>
<defs>
<linearGradient id="paint0_linear" x1="8.38991" y1="10.224" x2="10.3648" y2="31.4985" gradientUnits="userSpaceOnUse">
<stop stop-color="#0094A7"/>
<stop offset="1" stop-color="#00C9B4"/>
</linearGradient>
<linearGradient id="paint1_linear" x1="18.7905" y1="24.7643" x2="21.487" y2="53.8123" gradientUnits="userSpaceOnUse">
<stop stop-color="#0094A7"/>
<stop offset="1" stop-color="#00C9B4"/>
</linearGradient>
<linearGradient id="paint2_linear" x1="21.2272" y1="2.59123" x2="24.3601" y2="36.3404" gradientUnits="userSpaceOnUse">
<stop stop-color="#0094A7"/>
<stop offset="1" stop-color="#00C9B4"/>
</linearGradient>
<linearGradient id="paint3_linear" x1="23.8054" y1="-2.78988" x2="23.8054" y2="50.2407" gradientUnits="userSpaceOnUse">
<stop stop-color="#0094A7"/>
<stop offset="1" stop-color="#00C9B4"/>
</linearGradient>
</defs>
</svg>