<svg width="24" height="24" viewBox="0 0 24 24" fill="none" xmlns="http://www.w3.org/2000/svg">
<path d="M20.9229 12.9044C20.7893 12.794 20.6274 12.7233 20.4556 12.7004C20.2838 12.6775 20.109 12.7033 19.9512 12.7749C18.9726 13.2227 17.9087 13.4532 16.8326 13.4504C14.8419 13.448 12.9329 12.6587 11.5218 11.2545C10.1107 9.85038 9.31195 7.94528 9.29974 5.95463C9.30396 5.33075 9.38161 4.70954 9.53109 4.10382C9.56281 3.94237 9.55091 3.77538 9.49662 3.62006C9.44233 3.46474 9.34762 3.32671 9.22223 3.22017C9.09684 3.11364 8.94531 3.04246 8.78327 3.01398C8.62122 2.98549 8.4545 3.00072 8.3003 3.0581C6.84956 3.71043 5.58845 4.72084 4.63546 5.99441C3.68246 7.26798 3.06885 8.7629 2.85228 10.3387C2.6357 11.9146 2.82327 13.5196 3.39736 15.0031C3.97145 16.4865 4.91322 17.7997 6.13419 18.8192C7.35517 19.8387 8.81526 20.5311 10.3773 20.8313C11.9394 21.1316 13.5521 21.0298 15.0641 20.5356C16.576 20.0414 17.9375 19.1709 19.0206 18.006C20.1037 16.8411 20.873 15.42 21.256 13.8761C21.3027 13.6994 21.2959 13.5128 21.2366 13.3398C21.1773 13.1669 21.0682 13.0154 20.9229 12.9044ZM12.1315 19.0954C10.5784 19.0845 9.06672 18.5937 7.80335 17.6904C6.53997 16.7871 5.58669 15.5153 5.07403 14.0493C4.56137 12.5832 4.51439 10.9946 4.93953 9.5008C5.36466 8.00702 6.24113 6.68117 7.44892 5.70477V5.95463C7.45137 8.44258 8.44079 10.8279 10.2 12.5872C11.9593 14.3464 14.3446 15.3358 16.8326 15.3383C17.4858 15.3407 18.1374 15.2724 18.7759 15.1347C18.1373 16.3428 17.1809 17.3537 16.01 18.0582C14.8391 18.7627 13.498 19.1341 12.1315 19.1324V19.0954Z" />
</svg>
