<svg width="96" height="97" viewBox="0 0 96 97" fill="none" xmlns="http://www.w3.org/2000/svg">
<path d="M82 54.1L68 40.1L62.4 45.7L76.8 60.1C81.6 64.9 81.6 72.5 76.8 77.3C72 82.1 64.4 82.1 59.6 77.3L45.2 62.9L39.6 68.5L54 82.9C58 86.9 63.2 88.9 68 88.9C73.2 88.9 78.4 86.9 82 82.9C90 74.9 90 62.1 82 54.1ZM56.4 28.5L42.4 14.5C38.4 10.5 33.6 8.5 28 8.5C22.8 8.5 17.6 10.5 14 14.5C6 22.5 6 34.9 14 42.9L28 56.9L33.6 51.3L19.6 37.3C14.8 32.5 14.8 24.9 19.6 20.1C24 15.3 32 15.3 36.8 20.1L51.2 34.5L56.4 28.5ZM76 28.5H88V36.5H76V28.5ZM78.24 12.7L83.896 18.36L75.408 26.844L69.752 21.188L78.24 12.7ZM60 8.5H68V20.5H60V8.5ZM8 60.5H20V68.5H8V60.5ZM17.956 84.284L12.3 78.628L20.784 70.144L26.44 75.8L17.956 84.284ZM28 76.5H36V88.5H28V76.5Z" fill="url(#paint0_linear_195_1979)"/>
<defs>
<linearGradient id="paint0_linear_195_1979" x1="7.99998" y1="88.9" x2="88.399" y2="8.90097" gradientUnits="userSpaceOnUse">
<stop stop-color="#FFEB36"/>
<stop offset="1" stop-color="#6AFF36"/>
</linearGradient>
</defs>
</svg>
