<svg width="32" height="32" viewBox="0 0 32 32" fill="none" xmlns="http://www.w3.org/2000/svg">
<g clip-path="url(#clip0_352_2821)">
<path d="M16 32C24.8366 32 32 24.8366 32 16C32 7.16344 24.8366 0 16 0C7.16344 0 0 7.16344 0 16C0 24.8366 7.16344 32 16 32Z" fill="#FF0420"/>
<path d="M12.0602 10.9167C12.8841 10.8956 13.7001 11.0816 14.4335 11.4575C15.0875 11.8039 15.6245 12.336 15.9771 12.9867C16.3487 13.6906 16.535 14.4776 16.5182 15.2734C16.5139 15.6751 16.4753 16.0757 16.4028 16.4708C16.2556 17.3822 15.9026 18.248 15.3704 19.0024C14.8577 19.7283 14.1775 20.3197 13.3874 20.7265C12.5708 21.1445 11.6647 21.3574 10.7474 21.3468C9.91662 21.3682 9.09358 21.1822 8.35268 20.8057C7.69808 20.4635 7.16059 19.9336 6.80907 19.2839C6.44154 18.5814 6.25791 17.7972 6.2753 17.0045C6.27864 16.5933 6.31725 16.183 6.39071 15.7783C6.53764 14.8666 6.89064 14.0005 7.42284 13.2459C7.93613 12.5195 8.6197 11.93 9.41366 11.5291C10.2343 11.1166 11.1418 10.9065 12.0602 10.9167ZM11.9015 12.7921C11.0567 12.7804 10.24 13.0957 9.62218 13.6721C8.95575 14.2998 8.51894 15.1328 8.38153 16.038C8.33776 16.3051 8.31365 16.5752 8.3094 16.8459C8.29042 17.1946 8.34196 17.5437 8.46094 17.8721C8.57992 18.2005 8.76389 18.5015 9.00186 18.7572C9.25477 18.9975 9.55417 19.1836 9.88165 19.3039C10.2091 19.4243 10.5578 19.4764 10.9061 19.457C11.4648 19.4615 12.0155 19.325 12.5074 19.0602C13.0062 18.7881 13.4319 18.3996 13.7481 17.9276C14.0945 17.412 14.3213 16.8254 14.4117 16.2108C14.4626 15.9398 14.4867 15.6643 14.4838 15.3885C14.5033 15.0408 14.4519 14.6927 14.3329 14.3654C14.2139 14.0381 14.0296 13.7383 13.7914 13.4843C13.5397 13.2469 13.2424 13.0631 12.9175 12.9442C12.5926 12.8252 12.247 12.7734 11.9015 12.7921ZM20.4707 17.4662L19.8071 21.2459H17.773L19.5619 11.0609H23.2694C24.3177 11.0609 25.1015 11.2821 25.6209 11.7245C25.8819 11.9534 26.0877 12.2384 26.2226 12.5583C26.3575 12.8781 26.4181 13.2244 26.3999 13.5711C26.401 13.8079 26.3817 14.0445 26.3422 14.278C26.2004 15.1959 25.7158 16.0259 24.9861 16.6006C24.2552 17.1777 23.3079 17.4662 22.1442 17.4662H20.4707ZM22.2163 15.836C23.3992 15.836 24.0869 15.3167 24.2792 14.278C24.3011 14.1493 24.3107 14.0189 24.3081 13.8885C24.3187 13.7234 24.291 13.5582 24.2273 13.4056C24.1637 13.2529 24.0656 13.117 23.9409 13.0085C23.5943 12.7774 23.1796 12.6706 22.7645 12.7055H21.3074L20.7592 15.836H22.2163Z" fill="white"/>
</g>
<defs>
<clipPath id="clip0_352_2821">
<rect width="32" height="32" fill="white"/>
</clipPath>
</defs>
</svg>
