<svg width="16" height="16" viewBox="0 0 16 16" fill="none" xmlns="http://www.w3.org/2000/svg">
<path fill-rule="evenodd" clip-rule="evenodd" d="M13.3335 8.00007C13.3335 10.9456 10.9457 13.3334 8.00016 13.3334C5.05464 13.3334 2.66683 10.9456 2.66683 8.00007C2.66683 5.05455 5.05464 2.66674 8.00016 2.66674C10.9457 2.66674 13.3335 5.05455 13.3335 8.00007ZM14.6668 8.00007C14.6668 11.682 11.6821 14.6667 8.00016 14.6667C4.31826 14.6667 1.3335 11.682 1.3335 8.00007C1.3335 4.31817 4.31826 1.3334 8.00016 1.3334C11.6821 1.3334 14.6668 4.31817 14.6668 8.00007ZM7.42212 9.39969V9.51238H8.67828V9.39969C8.68048 9.18315 8.7081 9.00086 8.76113 8.85282C8.81637 8.70477 8.89923 8.57441 9.00971 8.46172C9.1224 8.34903 9.26603 8.24076 9.44059 8.13691C9.64829 8.01317 9.82837 7.87507 9.98083 7.72261C10.1333 7.56794 10.2515 7.39117 10.3355 7.19231C10.4216 6.99123 10.4647 6.76144 10.4647 6.50291C10.4647 6.11623 10.3686 5.7859 10.1764 5.51191C9.98415 5.23792 9.71899 5.02911 9.38093 4.88549C9.04286 4.73965 8.65397 4.66674 8.21426 4.66674C7.81432 4.66674 7.44863 4.73855 7.11719 4.88217C6.78576 5.02359 6.5195 5.23902 6.31843 5.52848C6.11735 5.81573 6.01129 6.18031 6.00024 6.62223H7.35252C7.35915 6.44104 7.40334 6.28969 7.48509 6.16816C7.56685 6.04442 7.6718 5.95162 7.79996 5.88975C7.92812 5.82567 8.06401 5.79363 8.20763 5.79363C8.35567 5.79363 8.49046 5.82457 8.61199 5.88643C8.73572 5.9483 8.83405 6.03669 8.90697 6.15159C8.97988 6.26649 9.01634 6.40017 9.01634 6.55263C9.01634 6.69625 8.9843 6.82662 8.92023 6.94373C8.85615 7.05863 8.76997 7.16358 8.6617 7.25859C8.55343 7.35361 8.4308 7.44531 8.29381 7.53369C8.11041 7.64859 7.95353 7.77674 7.82316 7.91816C7.69279 8.05957 7.59336 8.24518 7.52487 8.47498C7.45858 8.70477 7.42433 9.01301 7.42212 9.39969ZM7.51161 11.4016C7.66849 11.5563 7.85741 11.6336 8.07837 11.6336C8.21978 11.6336 8.35015 11.5982 8.46947 11.5275C8.58879 11.4546 8.6849 11.3585 8.75782 11.2392C8.83295 11.1177 8.87161 10.984 8.87382 10.8381C8.87161 10.6216 8.79096 10.436 8.63187 10.2813C8.47278 10.1266 8.28828 10.0493 8.07837 10.0493C7.85741 10.0493 7.66849 10.1266 7.51161 10.2813C7.35694 10.436 7.2807 10.6216 7.28291 10.8381C7.2807 11.0569 7.35694 11.2447 7.51161 11.4016Z" fill="#565656"/>
</svg>
