<svg width="94" height="28" viewBox="0 0 94 28" fill="none" xmlns="http://www.w3.org/2000/svg">
<g clip-path="url(#clip0_1669_15241)">
<path d="M69.3 9.95C70 9.6 70.8 9.45 71.6 9.45C73.25 9.45 74.9 10.15 74.9 12.35V18.6H73.8V12.4C73.8 10.9 72.8 10.3 71.5 10.3C70.75 10.3 70 10.45 69.3 10.8V18.65H68.2V6.2H69.3V9.95ZM85.7 7.1C85.7 7.25 85.65 7.4 85.55 7.55C85.45 7.65 85.3 7.75 85.1 7.7C84.95 7.7 84.8 7.65 84.65 7.55C84.55 7.45 84.45 7.25 84.5 7.1C84.5 6.95 84.55 6.8 84.7 6.65C84.8 6.55 85 6.5 85.15 6.5C85.3 6.5 85.45 6.55 85.6 6.65C85.65 6.8 85.7 6.95 85.7 7.1ZM84.55 9.6H85.65V18.65H84.55V9.6ZM88.2 10.3C88.95 9.9 90.05 9.45 90.9 9.45C92.6 9.45 94 10.2 94 12.35V18.6H92.9V12.4C92.9 10.9 92.1 10.3 90.75 10.3C90 10.3 89 10.75 88.35 11.05V18.6H87.25V9.6H88.1L88.2 10.3ZM27.9 5.85H26V18.55H33V16.8H27.9V5.85ZM35.05 5.7C34.8 5.7 34.55 5.8 34.35 5.95C34.15 6.15 34.05 6.4 34.05 6.65C34.05 6.9 34.15 7.15 34.35 7.35C34.55 7.55 34.8 7.65 35.05 7.65C35.6 7.65 36.05 7.2 36.05 6.65C36.05 6.1 35.6 5.7 35.05 5.7ZM34.15 9.6H36V18.6H34.15V9.6ZM46.6 9.45C45.6 9.45 44.6 9.75 43.7 10.25C43.1 9.7 42.3 9.4 41.5 9.45C40.75 9.5 40 9.7 39.3 10V9.6H37.7V18.6H39.5V11.4C40.1 11.2 40.75 11.1 41.35 11.05C42.75 11.05 42.65 11.8 42.65 12.4V18.55H44.5V12.85C44.5 12.4 44.5 11.95 44.4 11.55C45.35 11.1 45.85 11.05 46.35 11.05C47.35 11.05 47.6 11.65 47.6 12.8V18.55H49.5V12.7C49.5 10.75 48.5 9.45 46.6 9.45ZM58 14.95V12.85C58 10.7 56.7 9.45 54.45 9.45C52.15 9.45 50.75 10.75 50.75 12.9V15.9C50.75 17.9 52.05 18.75 54.2 18.75C55.35 18.8 56.5 18.4 57.45 17.7L56.35 16.6C55.75 17 55.05 17.15 54.3 17.15C52.75 17.15 52.6 16.3 52.6 15.7V14.95H58ZM52.55 12.85C52.55 11.25 53.7 11.05 54.4 11.05C55.2 11.05 56.2 11.35 56.2 12.8V13.45H52.55V12.85ZM63.85 17.8C62.05 17.8 60.75 16.8 60.75 14.8V10.4C60.75 8.35 62.05 7.4 63.85 7.4C64.9 7.4 65.8 7.8 66.3 8.45L67 7.75C66.35 6.9 65.25 6.35 63.8 6.35C61.35 6.35 59.65 7.7 59.65 10.35V14.75C59.65 17.45 61.35 18.75 63.8 18.75C65.2 18.75 66.25 18.25 66.95 17.45L66.25 16.75C65.7 17.45 64.9 17.8 63.85 17.8ZM79.2 9.45C78.4 9.4 77.6 9.6 76.9 10L77.55 10.6C78.05 10.4 78.6 10.3 79.1 10.3C81.4 10.3 81.7 11.4 81.75 12.6C81.1 12.5 80.4 12.45 79.7 12.45C77.8 12.45 76 13 76 15.35C76 17.55 77.35 18.8 79.2 18.8C80.35 18.8 81.2 18.3 81.9 17.9V18.65H82.75V13.05C82.85 11.3 82.45 9.45 79.2 9.45ZM81.75 17.15C81.15 17.45 80.6 17.85 79.4 17.95C77.95 18.05 77.05 16.95 77.05 15.4C77.05 13.75 78.35 13.3 79.85 13.3C80.5 13.3 81.1 13.35 81.75 13.45V17.15Z" fill="black"/>
<path d="M17.75 11.05C17.75 7.55 16.5 5.8 14.85 4.6L19.15 0H16.2L1.45 15.65L1.4 16.4C1.4 19.9 2.65 21.65 4.3 22.85L0 27.4H2.95L17.65 11.75L17.75 11.05ZM5.7 21.3C4.4 20.4 3.55 19.2 3.5 16.65L13.45 6.05C14.75 6.95 15.55 8.15 15.65 10.7L5.7 21.3ZM11.35 26.4L12.5 24.55C14.2 23.75 16.35 22.2 17.3 19.2C17.6 18.25 17.75 15.75 17.75 14.6V13.05L15.65 15.3C15.65 15.35 15.65 15.5 15.65 15.6C15.6 16.45 15.4 18.65 15.1 19.3C14.35 20.95 13 22.25 11.35 22.95C11.15 23.05 11 23.15 10.9 23.35L9.6 25.45L8.3 23.3L6.85 24.85L7.85 26.5C8.25 27.1 8.9 27.45 9.65 27.45C10.3 27.4 11 27.05 11.35 26.4ZM7.8 0.95L6.65 2.8C4.95 3.6 2.8 5.15 1.85 8.15C1.55 9.1 1.4 11.6 1.4 12.75V14.3L3.5 12.05C3.5 12 3.5 11.85 3.5 11.75C3.55 10.9 3.75 8.7 4.05 8.05C4.8 6.4 6.15 5.1 7.8 4.4C8 4.3 8.15 4.2 8.25 4L9.55 2L10.85 4.15L12.3 2.6L11.3 1C10.95 0.35 10.3 0 9.55 0C8.85 0 8.2 0.35 7.8 0.95Z" fill="#28EB9B"/>
</g>
<defs>
<clipPath id="clip0_1669_15241">
<rect width="94" height="28" fill="white"/>
</clipPath>
</defs>
</svg>
