<svg width="24" height="24" viewBox="0 0 24 24" fill="none" xmlns="http://www.w3.org/2000/svg">
<path fill-rule="evenodd" clip-rule="evenodd" d="M13 1V5H11V1H13ZM5 3.58579L7.41421 6L6 7.41421L3.58579 5L5 3.58579ZM20.4142 5L18 7.41421L16.5858 6L19 3.58579L20.4142 5ZM12 8C9.79086 8 8 9.79086 8 12C8 14.2091 9.79086 16 12 16C14.2091 16 16 14.2091 16 12C16 9.79086 14.2091 8 12 8ZM6 12C6 8.68629 8.68629 6 12 6C15.3137 6 18 8.68629 18 12C18 15.3137 15.3137 18 12 18C8.68629 18 6 15.3137 6 12ZM1 11H5V13H1V11ZM19 11H23V13H19V11ZM7.41421 18L5 20.4142L3.58579 19L6 16.5858L7.41421 18ZM18 16.5858L20.4142 19L19 20.4142L16.5858 18L18 16.5858ZM13 19V23H11V19H13Z" />
</svg>
