<svg width="24" height="24" viewBox="0 0 24 24" fill="none" xmlns="http://www.w3.org/2000/svg">
<path d="M20.4751 7.80464C20.4854 7.98972 20.4854 8.17481 20.4854 8.34964C20.4828 9.4883 20.3166 10.6207 19.9918 11.7121C19.3075 14.2271 17.8048 16.4426 15.7212 18.0086C13.6375 19.5746 11.0916 20.4019 8.48539 20.3599C6.19114 20.3625 3.94506 19.7019 2.01755 18.4576C2.35185 18.4989 2.6884 18.5195 3.02525 18.5193C4.92368 18.5211 6.76741 17.8836 8.25925 16.7095C7.38056 16.693 6.5289 16.4028 5.82296 15.8793C5.11702 15.3559 4.59195 14.6252 4.32093 13.7892C4.58255 13.834 4.84731 13.8581 5.11273 13.8612C5.49171 13.8626 5.869 13.8107 6.23351 13.7069C5.33108 13.5283 4.5123 13.0582 3.90296 12.369C3.29363 11.6798 2.92747 10.8095 2.86075 9.89203C2.84365 9.78668 2.83675 9.67993 2.84016 9.57327V9.52185C3.42619 9.84804 4.0823 10.0279 4.75274 10.0463C4.17568 9.66163 3.7028 9.14014 3.37626 8.52832C3.04973 7.9165 2.87969 7.23338 2.88133 6.53988C2.88059 5.79313 3.07558 5.05924 3.44687 4.41134C4.50588 5.71619 5.82784 6.78338 7.32667 7.54343C8.8255 8.30347 10.4676 8.73933 12.1461 8.82263C11.9337 7.91781 12.026 6.96818 12.4088 6.12126C12.7916 5.27433 13.4433 4.57752 14.2628 4.13906C15.0823 3.7006 16.0236 3.54503 16.9406 3.69654C17.8576 3.84804 18.6989 4.29812 19.3338 4.97688C20.2806 4.79002 21.1883 4.44222 22.0175 3.9486C22.0532 4.66449 21.9339 5.37964 21.6677 6.04515C21.4015 6.71066 20.9947 7.31084 20.4751 7.80464Z" />
</svg>
