<svg width="32" height="32" viewBox="0 0 32 32" fill="none" xmlns="http://www.w3.org/2000/svg">
<g clip-path="url(#clip0_1678_15284)">
<g clip-path="url(#clip1_1678_15284)">
<path d="M30.0506 30.6287L23.1816 28.5834L18.0017 31.68L14.3875 31.6784L9.20437 28.5834L2.33856 30.6287L0.25 23.5784L2.33856 15.7535L0.25 9.13779L2.33856 0.938354L13.0669 7.34805H19.322L30.0506 0.938354L32.1391 9.13779L30.0506 15.7535L32.1391 23.5784L30.0506 30.6287Z" fill="#FF5C16"/>
<path d="M2.33984 0.938232L13.0684 7.35243L12.6418 11.7545L2.33984 0.938232ZM9.20587 23.5812L13.9263 27.1771L9.20587 28.5833V23.5812ZM13.5491 17.6361L12.6418 11.7574L6.83449 15.7551L6.83134 15.7536V15.7565L6.84937 19.8714L9.20429 17.6364L13.5491 17.6361ZM30.0505 0.938232L19.3219 7.35243L19.7472 11.7545L30.0505 0.938232ZM23.1847 23.5812L18.464 27.1771L23.1847 28.5833V23.5812ZM25.5574 15.7563V15.7533L25.5561 15.7549L19.7487 11.7574L18.8415 17.6361H23.1845L25.541 19.871L25.5574 15.7563Z" fill="#FF5C16"/>
<path d="M9.20437 28.5833L2.33856 30.6286L0.25 23.5811H9.20437V28.5833ZM13.5476 17.6345L14.8591 26.1335L13.0414 21.4078L6.84651 19.8709L9.20279 17.6347H13.5476V17.6345ZM23.1845 28.5833L30.0506 30.6286L32.1391 23.5811H23.1845V28.5833ZM18.8415 17.6345L17.53 26.1335L19.3475 21.4078L25.5426 19.8709L23.1848 17.6347H18.8415V17.6345Z" fill="#E34807"/>
<path d="M0.25 23.5778L2.33856 15.7529H6.82983L6.84628 19.8692L13.0417 21.4061L14.8591 26.1315L13.9248 27.1722L9.20437 23.5763H0.25V23.5778ZM32.1391 23.5778L30.0506 15.7529H25.5591L25.5426 19.8692L19.3477 21.4061L17.53 26.1315L18.4641 27.1722L23.1848 23.5763H32.1391V23.5778ZM19.322 7.34753H13.0669L12.6421 11.7496L14.8594 26.127H17.53L19.7486 11.7496L19.322 7.34753Z" fill="#FF8D5D"/>
<path d="M2.33856 0.938354L0.25 9.13779L2.33856 15.7535H6.82983L12.6403 11.7546L2.33856 0.938354ZM12.2495 19.3417H10.2148L9.10701 20.4277L13.043 21.4035L12.2495 19.3404V19.3417ZM30.0506 0.938354L32.1391 9.13779L30.0506 15.7535H25.5591L19.7488 11.7546L30.0506 0.938354ZM20.1425 19.3417H22.1801L23.288 20.4291L19.3475 21.4066L20.1425 19.3402V19.3417ZM18.0001 28.8753L18.4643 27.1757L17.53 26.135H14.8573L13.9232 27.1757L14.3872 28.8753" fill="#661800"/>
<path d="M18.0001 28.8749V31.6812H14.3875V28.8749H18.0001Z" fill="#C0C4CD"/>
<path d="M9.20605 28.5799L14.3905 31.6794V28.8731L13.9263 27.1737L9.20605 28.5799ZM23.1849 28.5799L18.0002 31.6794V28.8731L18.4644 27.1737L23.1849 28.5799Z" fill="#E7EBF6"/>
</g>
</g>
<defs>
<clipPath id="clip0_1678_15284">
<rect width="32" height="32" fill="white"/>
</clipPath>
<clipPath id="clip1_1678_15284">
<rect width="32" height="30.8732" fill="white" transform="translate(0.25 0.938354)"/>
</clipPath>
</defs>
</svg>
