<svg width="24" height="24" viewBox="0 0 24 24" fill="none" xmlns="http://www.w3.org/2000/svg">
<path fill-rule="evenodd" clip-rule="evenodd" d="M14.6175 19.562C17.4473 18.5826 19.5566 16.0596 19.9381 13H15.9803C15.8764 15.6148 15.3697 17.9333 14.6175 19.562ZM12 22C17.5228 22 22 17.5228 22 12C22 6.47715 17.5228 2 12 2C6.47715 2 2 6.47715 2 12C2 17.5228 6.47715 22 12 22ZM9.38254 4.43801C6.55268 5.41736 4.44342 7.9404 4.06189 11H8.01975C8.12359 8.38522 8.63032 6.06674 9.38254 4.43801ZM10.0214 13C10.1143 15.15 10.5009 17.0092 11.0285 18.3283C11.3347 19.0937 11.6492 19.5788 11.8961 19.8399C11.9365 19.8826 11.9711 19.9155 12 19.9407C12.0289 19.9155 12.0635 19.8826 12.1039 19.8399C12.3508 19.5788 12.6653 19.0937 12.9715 18.3283C13.4991 17.0092 13.8857 15.15 13.9786 13L10.0214 13ZM8.01975 13C8.12359 15.6148 8.63032 17.9333 9.38254 19.562C6.55268 18.5826 4.44342 16.0596 4.06189 13H8.01975ZM13.9786 11L10.0214 11C10.1143 8.85001 10.5009 6.99079 11.0285 5.67171C11.3347 4.90634 11.6492 4.42118 11.8961 4.16007C11.9365 4.11741 11.9711 4.08451 12 4.05929C12.0289 4.08451 12.0635 4.11741 12.1039 4.16007C12.3508 4.42118 12.6653 4.90634 12.9715 5.67171C13.4991 6.99079 13.8857 8.85001 13.9786 11ZM15.9802 11C15.8764 8.38522 15.3697 6.06674 14.6175 4.43801C17.4473 5.41736 19.5566 7.9404 19.9381 11H15.9802Z" fill="white"/>
</svg>
