<?xml version="1.0" encoding="UTF-8" standalone="no"?>
<svg
   id="Layer_1"
   version="1.1"
   viewBox="0 0 1024 1024"
   sodipodi:docname="world-chain-logo.svg"
   inkscape:version="1.4 (e7c3feb1, 2024-10-09)"
   xmlns:inkscape="http://www.inkscape.org/namespaces/inkscape"
   xmlns:sodipodi="http://sodipodi.sourceforge.net/DTD/sodipodi-0.dtd"
   xmlns="http://www.w3.org/2000/svg"
   xmlns:svg="http://www.w3.org/2000/svg">
  <sodipodi:namedview
     id="namedview1"
     pagecolor="#ffffff"
     bordercolor="#000000"
     borderopacity="0.25"
     inkscape:showpageshadow="2"
     inkscape:pageopacity="0.0"
     inkscape:pagecheckerboard="0"
     inkscape:deskcolor="#d1d1d1"
     inkscape:zoom="0.98535156"
     inkscape:cx="512"
     inkscape:cy="505.9108"
     inkscape:window-width="1360"
     inkscape:window-height="1186"
     inkscape:window-x="2364"
     inkscape:window-y="44"
     inkscape:window-maximized="0"
     inkscape:current-layer="Layer_1" />
  <!-- Generator: Adobe Illustrator 29.2.1, SVG Export Plug-In . SVG Version: 2.1.0 Build 116)  -->
  <defs
     id="defs1">
    <style
       id="style1">
      .st0 {
        fill: #eae8e4;
      }
    </style>
  </defs>
  <circle
     style="fill:#000000;stroke-width:1.49999"
     id="path2"
     cx="512"
     cy="512"
     r="384" />
  <path
     class="st0"
     d="M649.72,274.04c-42.27-24.41-88.03-37.04-137.72-37.04s-95.44,12.2-137.72,37.04-75.4,57.96-100.24,100.24c-24.84,42.27-37.04,88.03-37.04,137.72s12.2,95.44,37.04,137.72c24.84,42.27,57.96,75.4,100.24,100.24s88.03,37.04,137.72,37.04,95.44-12.2,137.72-37.04,75.4-57.96,100.24-100.24c24.84-42.27,37.04-88.03,37.04-137.72s-12.2-95.44-37.04-137.72c-24.84-42.27-57.96-75.4-100.24-100.24h0ZM529,611.37c-30.94,0-55.78-8.72-74.96-26.58-13.07-12.2-21.35-27.02-25.71-44.45h296.36c-3.05,25.28-10.46,48.81-21.79,71.04h-174.33.44ZM428.76,484.54c3.92-17,12.64-31.81,25.28-44.02,18.74-17.87,44.02-27.02,74.96-27.02h175.2c11.33,22.23,18.3,45.76,20.92,71.04h-296.36ZM326.34,402.61c19.18-33.12,44.89-59.27,77.58-78.88,32.69-19.61,68.86-29.2,108.08-29.2s75.4,9.59,108.08,29.2c16.56,10.02,31.81,21.79,44.89,35.3h-138.59c-31.38,0-59.27,6.54-83.68,19.61-24.41,13.07-43.58,30.94-57.09,54.04-9.59,16.13-15.69,33.56-18.3,52.3h-67.99c3.49-29.2,12.2-56.66,27.02-81.93v-.44ZM620.08,700.27c-32.69,19.61-68.86,29.2-108.08,29.2s-75.4-9.59-108.08-29.2c-32.69-19.61-58.84-45.76-77.58-78.88-14.38-24.84-23.53-51.86-27.02-80.63h67.99c2.61,18.74,8.72,36.17,18.3,52.3,13.51,22.66,32.69,40.97,57.09,54.04,24.41,13.07,52.3,19.61,83.68,19.61h137.28c-13.07,13.07-27.46,24.41-43.58,33.99v-.44Z"
     id="path1" />
</svg>
