<?xml version="1.0" encoding="UTF-8"?>
<svg width="32px" height="32px" viewBox="0 0 32 32" version="1.1" xmlns="http://www.w3.org/2000/svg" xmlns:xlink="http://www.w3.org/1999/xlink">
    <title>zircuit-inverted-icon</title>
    <defs>
        <linearGradient x1="50%" y1="-6.32478516e-09%" x2="50.1474609%" y2="100%" id="linearGradient-1">
            <stop stop-color="#169E00" offset="0%"></stop>
            <stop stop-color="#00C537" offset="49%"></stop>
            <stop stop-color="#00B1C9" offset="100%"></stop>
        </linearGradient>
    </defs>
    <g id="Page-1" stroke="none" stroke-width="1" fill="none" fill-rule="evenodd">
        <g id="zircuit-inverted-icon">
            <rect id="Rectangle" fill="url(#linearGradient-1)" fill-rule="nonzero" x="0" y="0" width="32" height="32" rx="16"></rect>
            <path d="M3.125,16.031875 C3.125,8.9034375 8.8865,3.125 15.9926875,3.125 C23.1001875,3.125 28.8616875,8.9034375 28.8610625,16.03125 C28.8610625,18.556 28.138,20.9111875 26.8888125,22.9 C26.5444375,23.448 26.16075,23.9680625 25.740375,24.457 L16.0098125,14.69775 L7.642375,23.0891875 L6.260875,24.47475 C5.839225,23.9870625 5.45428125,23.4676875 5.10985625,22.9203125 C3.8524625,20.9276875 3.125,18.564875 3.125,16.031875 Z M25.413625,21.0610625 L25.5314375,20.8248125 L25.5320625,20.8254375 C26.27025,19.3484375 26.6603125,17.6905 26.6603125,16.031875 C26.6603125,10.1328125 21.875125,5.33350625 15.9933125,5.33350625 C10.1115625,5.33350625 5.32701875,10.1328125 5.32701875,16.031875 C5.32701875,17.699375 5.720825,19.3643125 6.466,20.8470625 L6.5844375,21.082 L16.0098125,11.6288125 L25.413625,21.0610625 Z M15.9931875,28.9375 C19.1968125,28.9375 22.1275625,27.763375 24.38025,25.8203125 L24.38025,25.8196875 L16.0103125,17.4250625 L7.6245,25.8349375 C9.874,27.76975 12.7895625,28.9375 15.9931875,28.9375 Z" id="Shape" fill="#FFFFFF"></path>
        </g>
    </g>
</svg>